<?xml version="1.0" encoding="UTF-8" standalone="no"?>
<!-- Created with Inkscape (http://www.inkscape.org/) -->

<svg
   width="105.52232mm"
   height="33.316586mm"
   viewBox="0 0 105.52232 33.316586"
   version="1.1"
   id="svg5"
   xml:space="preserve"
   sodipodi:docname="concat_fa_multiple.svg"
   inkscape:version="1.2.2 (b0a8486541, 2022-12-01)"
   xmlns:inkscape="http://www.inkscape.org/namespaces/inkscape"
   xmlns:sodipodi="http://sodipodi.sourceforge.net/DTD/sodipodi-0.dtd"
   xmlns="http://www.w3.org/2000/svg"
   xmlns:svg="http://www.w3.org/2000/svg"><sodipodi:namedview
     id="namedview46"
     pagecolor="#ffffff"
     bordercolor="#000000"
     borderopacity="0.25"
     inkscape:showpageshadow="2"
     inkscape:pageopacity="0.0"
     inkscape:pagecheckerboard="0"
     inkscape:deskcolor="#d1d1d1"
     inkscape:document-units="mm"
     showgrid="false"
     inkscape:zoom="1.8741917"
     inkscape:cx="138.72647"
     inkscape:cy="49.621393"
     inkscape:window-width="1920"
     inkscape:window-height="1044"
     inkscape:window-x="0"
     inkscape:window-y="0"
     inkscape:window-maximized="1"
     inkscape:current-layer="svg5" /><defs
     id="defs2" /><g
     aria-label="&lt;fasta input&gt;"
     id="text422"
     style="font-size:4.23333px;line-height:0em;font-family:'xkcd Script';-inkscape-font-specification:'xkcd Script';text-align:center;text-anchor:middle;stroke-width:0.3;stroke-linecap:round;stroke-dasharray:0.3, 0.899999;stop-color:#000000"><path
       d="m 10.097071,2.7401219 q 0.05935,-0.034618 0.08902,-0.029673 0.02967,0.00495 0.103855,0.079128 0.07913,0.079128 0.09396,0.1088005 0.02473,0.049455 -0.02473,0.1088005 -0.04451,0.059346 -0.4055289,0.4253112 -0.5390572,0.5390572 -0.5736756,0.5390572 -0.00989,0 -0.084073,0.059346 -0.069237,0.0544 -0.074182,0.064291 0,0.014836 0.064291,0.069237 0.039564,0.034618 0.1978192,0.2027646 0.1632008,0.1632008 0.1928737,0.1928737 0.103855,0.093964 0.1582553,0.1730917 0.059346,0.074182 0.1186915,0.1384734 0.049455,0.0544 0.09891,0.113746 0.04945,0.059346 0.118691,0.1285825 0.08902,0.089019 0.108801,0.1186915 0.02967,0.044509 0.04451,0.059346 0.0544,0.059346 -0.02473,0.1780372 -0.04946,0.064291 -0.06429,0.079128 -0.01484,0.014836 -0.0544,0.024727 -0.08902,0.024727 -0.1879281,-0.059346 Q 9.9239792,5.4452987 9.9140882,5.4255168 9.8943063,5.3810075 9.8745244,5.376062 9.8547425,5.3711166 9.7855058,5.2919889 9.5975776,5.0793333 9.5233954,4.9804237 9.4887771,4.9359144 9.384922,4.8468958 9.2860124,4.7529317 9.2464486,4.693586 9.1821574,4.5946764 8.9398289,4.3820208 8.7420098,4.1990381 8.7271733,4.1298014 q -0.00495,-0.014836 0.00495,-0.089019 0.014836,-0.09891 0.1038551,-0.1384734 0.019782,-0.00989 0.0544,-0.044509 0.059346,-0.059346 0.1533099,-0.123637 0.2027646,-0.1483643 0.4994933,-0.4450931 0.113746,-0.1236369 0.133528,-0.1236369 0.00495,0 0.034618,-0.029673 0.074182,-0.093964 0.2126556,-0.2324375 0.1384738,-0.1434189 0.1730918,-0.1632008 z"
       id="path431" /><path
       d="m 11.77853,2.5423027 q 0,-0.00989 0.02967,-0.00989 0.03462,-0.00495 0.07913,-0.00495 0.04451,0 0.08902,0.00495 0.04451,0 0.07913,0.00495 h 0.03956 q 0.380802,0.074182 0.529166,0.2522194 0.03956,0.049455 0.03956,0.0544 0,0.014836 0.0049,0.024727 0.02473,0.074182 0.0099,0.09891 -0.03956,0.084073 -0.113746,0.1038551 -0.01978,0 -0.0544,0.019782 -0.03462,0.014836 -0.06924,0.00989 -0.0544,-0.00989 -0.09396,-0.049455 -0.0544,-0.0544 -0.148364,-0.089019 -0.09396,-0.039564 -0.227492,-0.044509 -0.123637,-0.00495 -0.178037,0.00989 -0.04946,0.014836 -0.103855,0.079128 -0.04946,0.069237 -0.08407,0.1928737 -0.03462,0.1434189 -0.04451,0.2769468 l -0.0049,0.09891 0.09396,-0.00495 q 0.232437,-0.014836 0.267056,-0.014836 0.03956,0 0.05935,0.019782 0.05935,0.049455 0.06429,0.1730918 l 0.0049,0.089019 -0.03956,0.034618 q -0.03462,0.034618 -0.08902,0.044509 -0.04946,0.00495 -0.301674,0.024727 l -0.05935,0.00495 0.0049,0.044509 q 0.0049,0.029673 0.02967,0.3956383 0.02473,0.3659654 0.04451,0.4896024 0.01484,0.074182 0.02473,0.2522194 0.0099,0.1780372 -0.01484,0.2769468 -0.0049,0.014837 -0.0099,0.024727 -0.0049,0.00495 -0.01484,0.014836 -0.0049,0.00495 -0.0099,0.00989 -0.0049,0.00495 -0.01978,0.00495 -0.01484,0.00495 -0.02473,0.00495 -0.0049,0 -0.03462,0.00495 -0.02473,0.00495 -0.03956,0.00495 -0.103856,0.00989 -0.138474,-0.00989 -0.08902,-0.0544 -0.08902,-0.2917833 0.0049,-0.09891 -0.01484,-0.2868377 -0.01978,-0.1879282 -0.01978,-0.2324375 -0.0049,-0.074182 -0.0099,-0.123637 -0.0049,-0.0544 -0.0099,-0.1434189 -0.0049,-0.103855 -0.01484,-0.1632008 -0.0099,-0.059346 -0.01484,-0.1434189 0,-0.113746 -0.0099,-0.1236369 -0.0049,-0.00495 -0.143418,-0.00495 -0.222547,0 -0.296729,-0.059346 l -0.01978,-0.019782 q -0.0099,-0.024727 -0.01484,-0.064291 -0.0099,-0.064291 0.0099,-0.1038551 0.03956,-0.074182 0.133528,-0.089019 0.143419,-0.034618 0.262111,-0.039564 l 0.07913,-0.00495 v -0.123637 q 0.0099,-0.2621103 0.03462,-0.2868377 0.0049,-0.00495 0.01484,-0.039564 0.0099,-0.039564 0.01484,-0.074182 l 0.0099,-0.034618 q 0.04451,-0.103855 0.06924,-0.1384734 0.06924,-0.113746 0.118692,-0.1632008 0.0544,-0.049455 0.148364,-0.09891 0.07418,-0.039564 0.143419,-0.0544 0.04451,-0.00989 0.04451,-0.014836 z"
       id="path433" /><path
       d="m 13.618248,3.526453 q 0.04946,-0.034618 0.06429,-0.034618 0.01484,0 0.06924,-0.019782 0.0544,-0.024727 0.06924,-0.024727 0.02473,-0.00495 0.08902,-0.00495 0.03956,0.00495 0.103855,0.029673 0.06924,0.024727 0.07418,0.034618 0,0.00495 0.06924,0.064291 0.0099,0.00989 0.01484,0.029673 0.0099,0.014836 0.01978,0.019782 0.0099,0.00495 0.04451,0.079128 0.03462,0.069237 0.04451,0.098909 0.01484,0.079128 0.02473,0.079128 0.0099,0 0.0099,-0.00989 0,-0.00989 0.02967,-0.024727 0.02967,-0.014836 0.1088,-0.00495 0.08902,0.00989 0.108801,0.029673 0.02473,0.019782 0.03462,0.084073 0.0099,0.044509 0.01484,0.049455 0.01978,0.024727 0,0.1632008 -0.01978,0.1384734 -0.05935,0.2571649 -0.04946,0.1483643 -0.01978,0.3461835 0.02967,0.1434188 0.04451,0.1829827 0.03462,0.103855 0.148365,0.1780372 0.03956,0.024727 0.03956,0.059346 0.0049,0.029673 -0.03462,0.113746 -0.05935,0.1236369 -0.123637,0.1335279 -0.04451,0.00989 -0.123637,-0.034618 -0.07913,-0.049455 -0.143419,-0.1236369 -0.04451,-0.0544 -0.04451,-0.059346 0,-0.00989 -0.03462,-0.079128 l -0.03462,-0.069237 -0.04451,0.039564 q -0.01484,0.014836 -0.158255,0.1285824 -0.148365,0.1038551 -0.192874,0.1137461 -0.212656,0.0544 -0.321456,0.049455 -0.103855,-0.00989 -0.267056,-0.098909 -0.09396,-0.0544 -0.163201,-0.2077101 -0.03956,-0.079128 -0.03956,-0.093964 l -0.01978,-0.049455 Q 12.9605,4.8023865 12.985227,4.7380953 V 4.6342402 q -0.0099,-0.1335279 0.09396,-0.4104747 0.06924,-0.1879282 0.232438,-0.4104747 0.03462,-0.049455 0.123637,-0.1384734 0.09396,-0.089019 0.133528,-0.113746 z m 0.365966,0.3758564 q -0.0049,-0.00495 -0.03462,-0.059346 -0.02967,-0.059346 -0.0544,-0.059346 -0.0099,0 -0.103855,0.064291 -0.08902,0.059346 -0.1088,0.079128 -0.168147,0.1829827 -0.257165,0.3956383 -0.06924,0.1780372 -0.06924,0.3115651 0,0.2126556 0.04451,0.2868378 0.08902,0.1533098 0.227492,0.1088005 0.143419,-0.044509 0.257165,-0.1434188 0.113746,-0.09891 0.168147,-0.1879282 0.103855,-0.1780373 0.103855,-0.2917833 0,-0.039564 0.02473,-0.2126556 0.0099,-0.069237 0.01484,-0.079128 0.0049,-0.024727 -0.0099,-0.024727 -0.0544,0.00495 -0.103855,-0.044509 -0.04945,-0.049455 -0.06429,-0.089019 -0.01978,-0.044509 -0.03462,-0.0544 z"
       id="path435" /><path
       d="m 15.794262,3.2346698 q 0.06429,-0.00989 0.168147,0.00989 0.06429,0.00989 0.123637,0.039564 0.06924,0.029673 0.08902,0.079128 0.02473,0.059346 0.02473,0.064291 l -0.04945,0.09891 q -0.04451,0.084073 -0.08407,0.093964 -0.0544,0.019782 -0.113746,0 -0.212656,-0.069237 -0.400584,0.1285825 -0.0544,0.0544 -0.09396,0.1186914 -0.04946,0.093964 -0.0099,0.1038551 0.0099,0.00989 0.148364,-0.00989 l 0.138474,-0.00989 0.128582,-0.069237 q 0.07913,-0.039564 0.187928,-0.079128 0.08407,-0.024727 0.133528,-0.024727 0.0544,0 0.08407,0.00495 0.03462,0.00495 0.04451,0.00989 0.0099,0.00495 0.03462,0.019782 0.02967,0.00989 0.04946,0.019782 0.03956,0.019782 0.09396,0.074182 0.05935,0.049455 0.07913,0.089019 0.01484,0.034618 0.01484,0.034618 0.01484,0.0544 0.01484,0.069237 0,0.044509 0.01484,0.1038551 0.06924,0.2818923 0.01484,0.4698205 -0.04945,0.1829827 -0.232437,0.351129 -0.08407,0.084073 -0.113746,0.1088005 -0.07418,0.069237 -0.25222,0.1483644 -0.03462,0.014836 -0.267056,0.069237 -0.03956,0.00989 -0.128582,0.00989 -0.08902,0 -0.187928,-0.049455 -0.04451,-0.024727 -0.07418,-0.044509 -0.02967,-0.019782 -0.04451,-0.034618 -0.0099,-0.014837 -0.03462,-0.044509 -0.02473,-0.034618 -0.04451,-0.059346 -0.113746,-0.1335279 -0.138474,-0.2720013 -0.02473,-0.1533099 0.0099,-0.1978192 0.03462,-0.044509 0.04946,-0.0544 0.01978,-0.00989 0.08902,-0.014836 0.08902,-0.00989 0.113746,0.00495 0.02473,0.014836 0.03956,0.089019 0,0.014836 0.02473,0.0544 0.02473,0.039564 0.02473,0.059346 0,0.0544 0.113746,0.1582554 0.04451,0.044509 0.08902,0.039564 0.26211,-0.039564 0.356074,-0.1186915 0.01978,-0.019782 0.07418,-0.069237 0.05935,-0.0544 0.08902,-0.084073 0.02967,-0.029673 0.06429,-0.084073 0.03462,-0.059346 0.03956,-0.113746 0.0049,-0.039564 -0.01978,-0.1879282 -0.02473,-0.1533098 -0.03956,-0.1730917 -0.02967,-0.039564 -0.178037,0.034618 -0.148364,0.079128 -0.237383,0.1038551 -0.08902,0.019782 -0.281892,0.034618 -0.09396,0.00989 -0.173092,-0.00989 -0.02473,-0.00495 -0.0544,-0.00989 -0.02967,-0.00989 -0.03956,-0.00989 -0.0049,-0.00495 -0.02473,-0.00989 -0.01484,-0.00989 -0.02967,-0.019782 -0.01484,-0.014837 -0.03956,-0.044509 -0.06429,-0.074182 -0.09396,-0.1483644 -0.04946,-0.2522194 0.07418,-0.4450931 0.128583,-0.1928737 0.341238,-0.3016742 0.173092,-0.084073 0.301674,-0.103855 z"
       id="path437" /><path
       d="m 17.564747,2.5521937 q 0.01484,-0.019782 0.01484,-0.029673 0,-0.00989 0.01978,-0.034618 0.02473,-0.029673 0.02967,-0.029673 0.04945,0.00989 0.103855,0.019782 0.108801,0.019782 0.123637,0.049455 0.01484,0.049455 -0.03462,0.3906928 -0.02967,0.2225466 -0.06429,0.3412381 -0.0049,0.014836 -0.01484,0.064291 l -0.0099,0.039564 h 0.182983 q 0.336292,0 0.41542,0.034618 0.0544,0.014836 0.0544,0.103855 0,0.00495 0.0049,0.039564 0.0099,0.034618 0.0099,0.064291 0,0.024727 -0.01484,0.024727 l -0.0099,0.029673 q -0.0099,0.024727 -0.03956,0.049455 -0.02473,0.024727 -0.04945,0.024727 h -0.311566 q -0.291783,0 -0.296728,0.014836 -0.0049,0.00989 -0.0544,0.4154202 -0.0099,0.059346 -0.0099,0.2126555 0,0.484657 0.173091,0.6528032 0.04451,0.044509 0.103855,0.059346 0.07418,0.014836 0.168147,-0.00989 0.09891,-0.029673 0.148364,-0.079128 l 0.04451,-0.044509 0.06924,0.00495 q 0.108801,0.014836 0.148364,0.059346 0.02473,0.024727 0.01978,0.1088005 -0.0049,0.1088005 -0.07418,0.1730918 -0.01484,0.00989 -0.05935,0.039564 -0.04451,0.024727 -0.08407,0.044509 -0.03462,0.019782 -0.03462,0.014836 -0.03462,0.00495 -0.07418,0.019782 -0.301675,0.093964 -0.529167,-0.049455 -0.07913,-0.0544 -0.118691,-0.089019 -0.03462,-0.034618 -0.09396,-0.1186915 -0.04945,-0.074182 -0.118692,-0.3066197 -0.07418,-0.2868378 -0.04945,-0.5489482 0.01484,-0.1780372 0.01978,-0.2621103 0.0099,-0.133528 0.01978,-0.1829827 0.01978,-0.074182 -0.0099,-0.084073 -0.02967,-0.014836 -0.113746,0 -0.09891,0.00495 -0.143418,-0.024727 -0.04946,-0.029673 -0.05935,-0.069237 -0.02967,-0.1236369 -0.0099,-0.1681462 0.02473,-0.0544 0.07418,-0.069237 0.01484,-0.00495 0.143419,-0.019782 0.128582,-0.019782 0.15331,-0.019782 0.02473,0 0.02967,-0.00989 0.0049,-0.014836 0.01978,-0.123637 0.01484,-0.079128 0.07418,-0.3461835 0.0049,-0.024727 0.01484,-0.049455 0.0099,-0.029673 0.01484,-0.064291 0.01978,-0.1186915 0.0544,-0.1879282 0.01484,-0.039564 0.01484,-0.049455 0,-0.00989 0.01484,-0.024727 z"
       id="path439" /><path
       d="m 19.424244,3.526453 q 0.04945,-0.034618 0.06429,-0.034618 0.01484,0 0.06924,-0.019782 0.0544,-0.024727 0.06924,-0.024727 0.02473,-0.00495 0.08902,-0.00495 0.03956,0.00495 0.103855,0.029673 0.06924,0.024727 0.07418,0.034618 0,0.00495 0.06924,0.064291 0.0099,0.00989 0.01484,0.029673 0.0099,0.014836 0.01978,0.019782 0.0099,0.00495 0.04451,0.079128 0.03462,0.069237 0.04451,0.098909 0.01484,0.079128 0.02473,0.079128 0.0099,0 0.0099,-0.00989 0,-0.00989 0.02967,-0.024727 0.02967,-0.014836 0.1088,-0.00495 0.08902,0.00989 0.108801,0.029673 0.02473,0.019782 0.03462,0.084073 0.0099,0.044509 0.01484,0.049455 0.01978,0.024727 0,0.1632008 -0.01978,0.1384734 -0.05935,0.2571649 -0.04946,0.1483643 -0.01978,0.3461835 0.02967,0.1434188 0.04451,0.1829827 0.03462,0.103855 0.148365,0.1780372 0.03956,0.024727 0.03956,0.059346 0.0049,0.029673 -0.03462,0.113746 -0.05935,0.1236369 -0.123637,0.1335279 -0.04451,0.00989 -0.123637,-0.034618 -0.07913,-0.049455 -0.143419,-0.1236369 -0.04451,-0.0544 -0.04451,-0.059346 0,-0.00989 -0.03462,-0.079128 l -0.03462,-0.069237 -0.04451,0.039564 q -0.01484,0.014836 -0.158255,0.1285824 -0.148365,0.1038551 -0.192874,0.1137461 -0.212656,0.0544 -0.321456,0.049455 -0.103855,-0.00989 -0.267056,-0.098909 -0.09396,-0.0544 -0.163201,-0.2077101 -0.03956,-0.079128 -0.03956,-0.093964 l -0.01978,-0.049455 Q 18.766496,4.8023865 18.791223,4.7380953 V 4.6342402 q -0.0099,-0.1335279 0.09396,-0.4104747 0.06924,-0.1879282 0.232438,-0.4104747 0.03462,-0.049455 0.123637,-0.1384734 0.09396,-0.089019 0.133528,-0.113746 z m 0.365966,0.3758564 q -0.0049,-0.00495 -0.03462,-0.059346 -0.02967,-0.059346 -0.0544,-0.059346 -0.0099,0 -0.103855,0.064291 -0.08902,0.059346 -0.1088,0.079128 -0.168147,0.1829827 -0.257165,0.3956383 -0.06924,0.1780372 -0.06924,0.3115651 0,0.2126556 0.04451,0.2868378 0.08902,0.1533098 0.227492,0.1088005 0.143419,-0.044509 0.257165,-0.1434188 0.113746,-0.09891 0.168146,-0.1879282 0.103856,-0.1780373 0.103856,-0.2917833 0,-0.039564 0.02473,-0.2126556 0.0099,-0.069237 0.01484,-0.079128 0.0049,-0.024727 -0.0099,-0.024727 -0.0544,0.00495 -0.103855,-0.044509 -0.04945,-0.049455 -0.06429,-0.089019 -0.01978,-0.044509 -0.03462,-0.0544 z"
       id="path441" /><path
       d="m 22.52506,3.0417961 q 0.143419,-0.019782 0.20771,0.00495 0.07913,0.024727 0.178037,0.093964 0.04451,0.024727 0.04451,0.039564 0,0.074182 -0.0099,0.093964 -0.0049,0.014836 -0.01978,0.059346 -0.0099,0.039564 -0.03462,0.064291 -0.0099,0.00989 -0.01978,0.024727 -0.0049,0.00989 -0.01484,0.014836 -0.0049,0.00495 -0.01978,0.00989 -0.07418,0.014836 -0.133528,-0.014836 -0.07913,-0.044509 -0.15331,-0.00989 -0.01978,0.00989 -0.0544,0.014836 -0.03462,0 -0.0544,0.00989 -0.0049,0 -0.01484,0.00495 -0.0099,0.00495 -0.01978,0.00989 -0.0049,0 -0.0099,0 -0.01484,0 -0.07418,0.019782 -0.0544,0.014836 -0.07913,0.00989 -0.04451,-0.014836 -0.07418,-0.074182 -0.07913,-0.1632008 0.02473,-0.2176011 0.0099,-0.00495 0.03956,-0.024727 l 0.02473,-0.019782 q 0.02967,-0.024727 0.123637,-0.064291 0.09891,-0.039564 0.143419,-0.049455 z m -0.158256,0.8605133 0.02473,-0.034618 h 0.09396 q 0.08902,0 0.123637,0.019782 0.02967,0.014836 0.02967,0.039564 0,0.014836 0.0099,0.034618 0.01978,0.039564 0.02473,0.1730918 0.0099,0.1335279 -0.0049,0.2225465 -0.0099,0.1384734 -0.01484,0.1829827 0,0.039564 0.01484,0.1730918 0.01484,0.1335279 0.01484,0.1730918 0.0099,0.1236369 0.03956,0.1730917 l 0.02473,0.0544 q -0.02473,0.074182 -0.0544,0.084073 -0.02967,0.014836 -0.0544,0.039564 -0.03462,0.029673 -0.09891,0.029673 -0.08407,0 -0.123637,-0.029673 -0.03462,-0.029673 -0.06429,-0.1186914 -0.02967,-0.093964 -0.03956,-0.2176011 -0.0049,-0.079128 -0.01484,-0.1384734 -0.0049,-0.064291 -0.0099,-0.1186915 0,-0.059346 0,-0.1829827 0.0099,-0.4549841 0.07913,-0.5588391 z"
       id="path443" /><path
       d="m 24.023537,3.3385248 q 0.02473,-0.014836 0.118691,0 0.09891,0.00989 0.118692,0.029673 0.0099,0.00989 0.06924,0.029673 l 0.0544,0.0544 q 0.1088,0.1088006 0.168146,0.2670559 0.0049,0.024727 0.02473,0.044509 0.0099,0.00989 0.04946,0.1434189 0.04451,0.1285824 0.04451,0.1483643 0,0.029673 0.04946,0.2274921 0.03956,0.1236369 0.04945,0.3214561 0,0.089019 0.0099,0.1186915 0.01484,0.093964 0.01484,0.2967287 0,0.2027646 -0.01484,0.2818923 -0.01978,0.1483643 -0.06924,0.2126555 l -0.01978,0.039564 q 0,0.00989 -0.09396,0.019782 -0.01978,0.00495 -0.07913,-0.034618 -0.0544,-0.034618 -0.06429,-0.039564 -0.08902,-0.034618 -0.05935,-0.1681463 0.02473,-0.1335279 0.02473,-0.3808018 0,-0.247274 -0.02473,-0.4154202 -0.02473,-0.1483644 -0.09891,-0.4401476 -0.02473,-0.1088006 -0.08407,-0.237383 -0.05935,-0.1335279 -0.08902,-0.1483644 -0.0099,-0.00989 -0.08407,0.024727 -0.06429,0.029673 -0.163201,0.1285825 -0.128582,0.1285824 -0.182982,0.2522194 -0.04451,0.103855 -0.0544,0.1730917 -0.0099,0.064291 -0.0049,0.247274 0.0099,0.227492 0.01484,0.2423284 0.02473,0.079128 0.03956,0.2868378 0.01484,0.2027646 -0.0049,0.2423284 l -0.0099,0.029673 q -0.0049,0.024727 -0.01978,0.049455 -0.02473,0.049455 -0.06429,0.064291 -0.03956,0.014836 -0.138473,0.019782 -0.07913,0 -0.133528,-0.1088005 -0.02473,-0.0544 -0.04946,-0.227492 -0.01484,-0.1186915 -0.0099,-1.0682234 0,-0.3659654 0.02473,-0.3956383 0.0099,-0.014836 0.07913,-0.029673 0.06924,-0.014836 0.09891,0 0.02967,0.019782 0.02967,0.029673 0,0.044509 0.07913,-0.024727 0.168146,-0.1681463 0.257164,-0.2126556 0.123637,-0.069237 0.128583,-0.069237 0.05935,-0.019782 0.06924,-0.024727 z"
       id="path445" /><path
       d="m 26.070966,3.2643426 q 0.01978,-0.00989 0.1088,0.00989 0.232438,0.0544 0.316511,0.1186915 0.04451,0.034618 0.05935,0.034618 0.0099,-0.00495 0.08407,0.079128 0.07418,0.079128 0.09396,0.113746 0.113746,0.1780372 0.163201,0.36102 0.0099,0.029673 0.01978,0.049455 0.0099,0.019782 0.01978,0.0544 0.05935,0.2472739 0.02473,0.5242207 0,0.014837 -0.01978,0.089019 -0.01978,0.074182 -0.01978,0.084073 0,0.024727 -0.03956,0.084073 -0.01978,0.029673 -0.02967,0.049455 -0.0099,0.019782 -0.01484,0.029673 -0.0049,0.00989 -0.01978,0.029673 -0.01484,0.014836 -0.0544,0.0544 -0.08902,0.089019 -0.15331,0.1186915 -0.113746,0.059346 -0.143419,0.069237 -0.321456,0.084073 -0.544002,0.024727 -0.192874,-0.039564 -0.336293,-0.1088005 l -0.07418,-0.034618 v 0.093964 q 0,0.09891 -0.0049,0.1038551 -0.0049,0.00495 -0.01978,0.3906928 -0.0099,0.3857473 -0.0099,0.4055293 -0.0099,0.034618 -0.0099,0.2027646 0,0.0544 -0.03462,0.113746 -0.02967,0.059346 -0.05935,0.059346 -0.01978,0 -0.03956,0.00989 -0.01978,0.00989 -0.07913,-0.00989 -0.02967,-0.00989 -0.0544,-0.014836 -0.02473,-0.00495 -0.04946,-0.019782 -0.08407,-0.049455 -0.0544,-0.2571649 0.0099,-0.084073 0.01978,-0.3066197 0.0099,-0.217601 0.01484,-0.4994933 0.0099,-0.2818923 0.01484,-0.3956383 0.01978,-0.2967288 0.01978,-0.4154202 0.0099,-0.1681463 0.01484,-0.1978192 0.01978,-0.1483644 -0.01484,-0.2176011 -0.0099,-0.029673 -0.0049,-0.1582553 0.0049,-0.1285824 0.02967,-0.1829827 0.02473,-0.049455 0.02473,-0.069237 0,-0.029673 0.103855,-0.1533098 0.01978,-0.024727 0.03462,-0.044509 0.01978,-0.024727 0.02967,-0.034618 0.0099,-0.014836 0.01484,-0.019782 0.0099,-0.014836 0.08407,-0.059346 0.07913,-0.044509 0.123637,-0.059346 0.03462,-0.014836 0.0544,-0.024727 0.02473,-0.00989 0.05935,-0.019782 0.02967,-0.00495 0.04451,-0.019782 0.0049,-0.00989 0.09891,-0.019782 0.09891,-0.014836 0.143419,-0.00989 0.03956,0.00495 0.06429,-0.00495 z m 0.03462,0.3709109 q -0.173091,-0.019782 -0.301674,0.024727 -0.182983,0.0544 -0.257165,0.1483644 l -0.03462,0.044509 0.0049,0.064291 q 0,0.014836 0,0.079128 0.0049,0.059346 0.0049,0.1681463 0.0049,0.1088005 0.0049,0.1879282 l 0.0099,0.3709109 h 0.02967 q 0.03462,0 0.118692,0.049455 0.123637,0.079128 0.267055,0.1038551 0.182983,0.039564 0.346184,0.00495 0.217601,-0.049455 0.276947,-0.227492 0.06429,-0.1829828 -0.0099,-0.4994934 -0.01978,-0.103855 -0.07418,-0.2126556 Q 26.436931,3.8281272 26.37264,3.7687815 26.244058,3.65009 26.105584,3.6352535 Z"
       id="path447" /><path
       d="m 28.662395,3.422598 q 0.07418,-0.044509 0.08407,-0.049455 0.01484,-0.00495 0.09891,0 0.03956,0.00989 0.103855,0.1434189 0.07418,0.1681462 0.08902,0.341238 0.0099,0.1285824 0.0099,0.3560744 0,0.2274921 -0.0049,0.2571649 -0.0049,0.019782 -0.02473,0.1384734 -0.03956,0.2720014 -0.148364,0.4154203 -0.123637,0.1533098 -0.158256,0.1632008 -0.01484,0 -0.02967,0.014836 -0.04451,0.039564 -0.192874,0.09891 -0.143419,0.0544 -0.281892,0.084073 -0.222547,0.049455 -0.370911,0.024727 -0.385748,-0.064291 -0.494548,-0.4104747 -0.123637,-0.3956383 -0.0544,-0.7467673 0.0049,-0.034618 0.0099,-0.113746 0.0099,-0.084073 0.01978,-0.1434189 0.0099,-0.064291 0.02967,-0.089019 0.0099,-0.014836 0.02473,-0.079128 0.01484,-0.064291 0.01978,-0.079128 0.01484,-0.029673 0.01484,-0.064291 0,-0.024727 0.03956,-0.1186915 0.03956,-0.093964 0.0544,-0.113746 0.02473,-0.024727 0.03956,-0.039564 0.01484,-0.014836 0.01484,-0.00989 0,0.00495 0.01484,-0.00495 0.01484,-0.014836 0.118691,0.029673 0.09396,0.034618 0.108801,0.059346 0.01978,0.024727 0.0049,0.084073 -0.0099,0.034618 -0.0099,0.069237 0,0.034618 -0.01978,0.089019 -0.06924,0.2176011 -0.07913,0.3264016 -0.02473,0.2522194 -0.04451,0.2917833 -0.0099,0.00989 -0.0049,0.1879282 0.0099,0.1730917 0.01978,0.2423284 0.02473,0.1384734 0.08902,0.2126556 0.03462,0.034618 0.05935,0.044509 0.02967,0.00495 0.15331,0.00989 0.267056,0 0.430257,-0.093964 0.128582,-0.069237 0.178037,-0.1483644 0.0544,-0.079128 0.07418,-0.2324375 0.01978,-0.1335279 0.02473,-0.1384734 0.0099,-0.019782 0.0099,-0.2126556 0,-0.1928736 -0.0099,-0.2077101 -0.0049,-0.00989 -0.01484,-0.1335279 -0.0049,-0.1285824 -0.07418,-0.2868378 -0.02473,-0.049455 -0.0099,-0.089019 0.0099,-0.034618 0.08902,-0.079128 z"
       id="path449" /><path
       d="m 29.953168,2.5521937 q 0.01484,-0.019782 0.01484,-0.029673 0,-0.00989 0.01978,-0.034618 0.02473,-0.029673 0.02967,-0.029673 0.04946,0.00989 0.103855,0.019782 0.108801,0.019782 0.123637,0.049455 0.01484,0.049455 -0.03462,0.3906928 -0.02967,0.2225466 -0.06429,0.3412381 -0.0049,0.014836 -0.01484,0.064291 l -0.0099,0.039564 h 0.182983 q 0.336292,0 0.41542,0.034618 0.0544,0.014836 0.0544,0.103855 0,0.00495 0.0049,0.039564 0.0099,0.034618 0.0099,0.064291 0,0.024727 -0.01484,0.024727 l -0.0099,0.029673 q -0.0099,0.024727 -0.03956,0.049455 -0.02473,0.024727 -0.04945,0.024727 h -0.311565 q -0.291784,0 -0.296729,0.014836 -0.0049,0.00989 -0.0544,0.4154202 -0.0099,0.059346 -0.0099,0.2126555 0,0.484657 0.173091,0.6528032 0.04451,0.044509 0.103855,0.059346 0.07418,0.014836 0.168147,-0.00989 0.09891,-0.029673 0.148364,-0.079128 l 0.04451,-0.044509 0.06924,0.00495 q 0.108801,0.014836 0.148364,0.059346 0.02473,0.024727 0.01978,0.1088005 -0.0049,0.1088005 -0.07418,0.1730918 -0.01484,0.00989 -0.05935,0.039564 -0.04451,0.024727 -0.08407,0.044509 -0.03462,0.019782 -0.03462,0.014836 -0.03462,0.00495 -0.07418,0.019782 -0.301674,0.093964 -0.529166,-0.049455 -0.07913,-0.0544 -0.118692,-0.089019 -0.03462,-0.034618 -0.09396,-0.1186915 -0.04946,-0.074182 -0.118692,-0.3066197 -0.07418,-0.2868378 -0.04945,-0.5489482 0.01484,-0.1780372 0.01978,-0.2621103 0.0099,-0.133528 0.01978,-0.1829827 0.01978,-0.074182 -0.0099,-0.084073 -0.02967,-0.014836 -0.113746,0 -0.09891,0.00495 -0.143419,-0.024727 -0.04945,-0.029673 -0.05935,-0.069237 -0.02967,-0.1236369 -0.0099,-0.1681462 0.02473,-0.0544 0.07418,-0.069237 0.01484,-0.00495 0.143419,-0.019782 0.128582,-0.019782 0.15331,-0.019782 0.02473,0 0.02967,-0.00989 0.0049,-0.014836 0.01978,-0.123637 0.01484,-0.079128 0.07418,-0.3461835 0.0049,-0.024727 0.01484,-0.049455 0.0099,-0.029673 0.01484,-0.064291 0.01978,-0.1186915 0.0544,-0.1879282 0.01484,-0.039564 0.01484,-0.049455 0,-0.00989 0.01484,-0.024727 z"
       id="path451" /><path
       d="m 31.283499,2.7895767 q 0.07418,-0.074182 0.103855,-0.079128 0.02967,-0.00495 0.08902,0.029673 0.03462,0.019782 0.173092,0.1632008 0.138473,0.1384734 0.212655,0.2324375 0.02967,0.029673 0.03462,0.029673 0.01978,0 0.133527,0.1236369 0.296729,0.2967288 0.499494,0.4450931 0.09396,0.064291 0.15331,0.123637 0.03462,0.034618 0.0544,0.044509 0.02473,0.00989 0.03956,0.024727 0.01484,0.00989 0.02473,0.019782 0.0099,0.00495 0.01484,0.024727 0.0099,0.019782 0.0099,0.029673 0.0049,0.00495 0.0099,0.039564 0.0099,0.029673 0.01484,0.044509 0,0.024727 -0.0049,0.044509 -0.01484,0.069237 -0.212655,0.2522194 -0.242329,0.2126556 -0.30662,0.3115652 -0.03956,0.059346 -0.143419,0.1533098 -0.09891,0.093964 -0.133528,0.1335279 -0.07418,0.09891 -0.26211,0.3115652 -0.06924,0.079128 -0.08902,0.084073 -0.01978,0.00495 -0.03956,0.049455 -0.0099,0.019782 -0.07913,0.089019 -0.09891,0.084073 -0.187928,0.059346 -0.03956,-0.00989 -0.0544,-0.024727 -0.01484,-0.00989 -0.06429,-0.079128 -0.07913,-0.1186914 -0.02473,-0.1780372 0.01484,-0.014836 0.04451,-0.059346 0.0099,-0.019782 0.113746,-0.123637 0.103855,-0.1038551 0.108801,-0.113746 0.0049,-0.00989 0.09891,-0.1186915 0.09891,-0.1088005 0.108801,-0.1285825 0.02967,-0.059346 0.173092,-0.1879281 0.02967,-0.029673 0.187928,-0.1928737 0.163201,-0.1681463 0.202764,-0.2027646 0.06429,-0.0544 0.06429,-0.069237 -0.0049,-0.00989 -0.07913,-0.064291 -0.06924,-0.059346 -0.07913,-0.059346 -0.03956,0 -0.573675,-0.5390572 -0.36102,-0.3659654 -0.410475,-0.4253112 -0.04451,-0.059346 -0.01978,-0.1088005 0.01484,-0.029673 0.09396,-0.1088005 z"
       id="path453" /></g><rect
     style="fill:#233e6c;fill-opacity:1;stroke-width:0.3;stroke-linecap:round;stroke-dasharray:0.3, 0.899999;stop-color:#000000"
     id="rect290"
     width="35.512978"
     height="1.6051174"
     x="3.0318818"
     y="17.362814" /><g
     aria-label="&gt;a"
     id="text5070"
     style="font-size:2.82222px;line-height:0em;font-family:'xkcd Script';-inkscape-font-specification:'xkcd Script';text-align:center;text-anchor:middle;stroke-width:0.3;stroke-linecap:round;stroke-dasharray:0.3, 0.899999;stop-color:#000000"><path
       d="m 3.0130419,15.151714 q 0.049455,-0.04946 0.069237,-0.05275 0.019782,-0.0033 0.059346,0.01978 0.023079,0.01319 0.1153945,0.1088 0.092316,0.09232 0.1417704,0.154959 0.019782,0.01978 0.023079,0.01978 0.013188,0 0.089019,0.08242 0.1978192,0.197819 0.3329956,0.296729 0.062643,0.04286 0.1022066,0.08243 0.023079,0.02308 0.036267,0.02967 0.016485,0.0066 0.026376,0.01648 0.00989,0.0066 0.016485,0.01319 0.00659,0.0033 0.00989,0.01648 0.00659,0.01319 0.00659,0.01978 0.0033,0.0033 0.00659,0.02638 0.00659,0.01978 0.00989,0.02967 0,0.01648 -0.0033,0.02967 -0.00989,0.04616 -0.1417704,0.168146 -0.1615523,0.141771 -0.2044131,0.20771 -0.026376,0.03956 -0.095613,0.102207 -0.06594,0.06264 -0.089019,0.08902 -0.049455,0.06594 -0.1747402,0.207711 -0.046158,0.05275 -0.059346,0.05605 -0.013188,0.0033 -0.026376,0.03297 -0.00659,0.01319 -0.052752,0.05935 -0.06594,0.05605 -0.1252855,0.03956 -0.026376,-0.0066 -0.036267,-0.01648 -0.00989,-0.0066 -0.042861,-0.05275 -0.052752,-0.07913 -0.016485,-0.118691 0.00989,-0.0099 0.029673,-0.03956 0.00659,-0.01319 0.075831,-0.08243 0.069237,-0.06924 0.072534,-0.07583 0.0033,-0.0066 0.06594,-0.07913 0.06594,-0.07253 0.072534,-0.08572 0.019782,-0.03956 0.1153945,-0.125285 0.019782,-0.01978 0.1252854,-0.128583 0.1088006,-0.112097 0.1351765,-0.135176 0.042861,-0.03627 0.042861,-0.04616 -0.0033,-0.0066 -0.052752,-0.04286 -0.046158,-0.03956 -0.052752,-0.03956 -0.026376,0 -0.3824503,-0.359371 -0.24068,-0.243977 -0.2736499,-0.283541 -0.029673,-0.03956 -0.013188,-0.07253 0.00989,-0.01978 0.062643,-0.07253 z"
       id="path493" /><path
       d="m 4.6780176,15.642965 q 0.03297,-0.02308 0.042861,-0.02308 0.00989,0 0.046158,-0.01319 0.036267,-0.01648 0.046158,-0.01648 0.016485,-0.0033 0.059346,-0.0033 0.026376,0.0033 0.069237,0.01978 0.046158,0.01648 0.049455,0.02308 0,0.0033 0.046158,0.04286 0.00659,0.0066 0.00989,0.01978 0.00659,0.0099 0.013188,0.01319 0.00659,0.0033 0.029673,0.05275 0.023079,0.04616 0.029673,0.06594 0.00989,0.05275 0.016485,0.05275 0.00659,0 0.00659,-0.0066 0,-0.0066 0.019782,-0.01648 0.019782,-0.0099 0.072534,-0.0033 0.059346,0.0066 0.072534,0.01978 0.016485,0.01319 0.023079,0.05605 0.00659,0.02967 0.00989,0.03297 0.013188,0.01649 0,0.108801 -0.013188,0.09231 -0.039564,0.171443 -0.03297,0.09891 -0.013188,0.230789 0.019782,0.09561 0.029673,0.121989 0.023079,0.06924 0.09891,0.118691 0.026376,0.01648 0.026376,0.03956 0.0033,0.01978 -0.023079,0.07583 -0.039564,0.08242 -0.082425,0.08902 -0.029673,0.0066 -0.082425,-0.02308 -0.052752,-0.03297 -0.095613,-0.08242 -0.029673,-0.03627 -0.029673,-0.03956 0,-0.0066 -0.023079,-0.05275 L 5.0835469,16.671624 5.053874,16.698 q -0.00989,0.0099 -0.1055036,0.08572 -0.098909,0.06924 -0.1285824,0.07583 -0.1417704,0.03627 -0.2143041,0.03297 -0.069237,-0.0066 -0.1780373,-0.06594 -0.062643,-0.03627 -0.1088005,-0.138474 -0.026376,-0.05275 -0.026376,-0.06264 l -0.013188,-0.03297 q -0.039564,-0.09891 -0.023079,-0.141771 v -0.06924 q -0.00659,-0.08902 0.062643,-0.273649 0.046158,-0.125286 0.1549583,-0.27365 0.023079,-0.03297 0.082425,-0.09232 0.062643,-0.05935 0.089019,-0.07583 z m 0.2439769,0.250571 q -0.0033,-0.0033 -0.023079,-0.03956 -0.019782,-0.03956 -0.036267,-0.03956 -0.00659,0 -0.069237,0.04286 -0.059346,0.03956 -0.072534,0.05275 -0.1120975,0.121989 -0.1714433,0.263759 -0.046158,0.118692 -0.046158,0.20771 0,0.141771 0.029673,0.191226 0.059346,0.102206 0.1516613,0.07253 0.095613,-0.02967 0.1714433,-0.09561 0.075831,-0.06594 0.1120976,-0.125286 0.069237,-0.118691 0.069237,-0.194522 0,-0.02638 0.016485,-0.14177 0.00659,-0.04616 0.00989,-0.05275 0.0033,-0.01648 -0.00659,-0.01648 -0.036267,0.0033 -0.069237,-0.02967 -0.03297,-0.03297 -0.042861,-0.05935 -0.013188,-0.02967 -0.023079,-0.03627 z"
       id="path495" /></g><rect
     style="fill:#233e6c;fill-opacity:1;stroke-width:0.3;stroke-linecap:round;stroke-dasharray:0.3, 0.900001;stop-color:#000000"
     id="rect346"
     width="11.719282"
     height="1.6051174"
     x="3.0318818"
     y="21.993259" /><g
     aria-label="&gt;a"
     id="text5078"
     style="font-size:2.82222px;line-height:0em;font-family:'xkcd Script';-inkscape-font-specification:'xkcd Script';text-align:center;text-anchor:middle;stroke-width:0.3;stroke-linecap:round;stroke-dasharray:0.3, 0.899999;stop-color:#000000"><path
       d="m 3.1119513,19.782159 q 0.049455,-0.04946 0.069237,-0.05275 0.019782,-0.0033 0.059346,0.01978 0.023079,0.01319 0.1153946,0.108801 0.092316,0.09231 0.1417704,0.154958 0.019782,0.01978 0.023079,0.01978 0.013188,0 0.089019,0.08243 0.1978191,0.197819 0.3329956,0.296728 0.062643,0.04286 0.1022065,0.08243 0.023079,0.02308 0.036267,0.02967 0.016485,0.0066 0.026376,0.01648 0.00989,0.0066 0.016485,0.01319 0.00659,0.0033 0.00989,0.01648 0.00659,0.01319 0.00659,0.01978 0.0033,0.0033 0.00659,0.02638 0.00659,0.01978 0.00989,0.02967 0,0.01648 -0.0033,0.02967 -0.00989,0.04616 -0.1417704,0.168147 -0.1615523,0.14177 -0.2044132,0.20771 -0.026376,0.03956 -0.095613,0.102206 -0.06594,0.06264 -0.089019,0.08902 -0.049455,0.06594 -0.1747402,0.20771 -0.046158,0.05275 -0.059346,0.05605 -0.013188,0.0033 -0.026376,0.03297 -0.00659,0.01319 -0.052752,0.05934 -0.06594,0.05605 -0.1252854,0.03956 -0.026376,-0.0066 -0.036267,-0.01648 -0.00989,-0.0066 -0.042861,-0.05275 -0.052752,-0.07913 -0.016485,-0.118692 0.00989,-0.0099 0.029673,-0.03956 0.00659,-0.01319 0.075831,-0.08242 0.069237,-0.06924 0.072534,-0.07583 0.0033,-0.0066 0.06594,-0.07913 0.06594,-0.07253 0.072534,-0.08572 0.019782,-0.03956 0.1153946,-0.125286 0.019782,-0.01978 0.1252854,-0.128582 0.1088006,-0.112098 0.1351765,-0.135177 0.042861,-0.03627 0.042861,-0.04616 -0.0033,-0.0066 -0.052752,-0.04286 -0.046158,-0.03956 -0.052752,-0.03956 -0.026376,0 -0.3824504,-0.359372 -0.2406799,-0.243977 -0.2736498,-0.28354 -0.029673,-0.03956 -0.013188,-0.07253 0.00989,-0.01978 0.062643,-0.07253 z"
       id="path498" /><path
       d="m 4.776927,20.27341 q 0.03297,-0.02308 0.042861,-0.02308 0.00989,0 0.046158,-0.01319 0.036267,-0.01648 0.046158,-0.01648 0.016485,-0.0033 0.059346,-0.0033 0.026376,0.0033 0.069237,0.01978 0.046158,0.01648 0.049455,0.02308 0,0.0033 0.046158,0.04286 0.00659,0.0066 0.00989,0.01978 0.00659,0.0099 0.013188,0.01319 0.00659,0.0033 0.029673,0.05275 0.023079,0.04616 0.029673,0.06594 0.00989,0.05275 0.016485,0.05275 0.00659,0 0.00659,-0.0066 0,-0.0066 0.019782,-0.01648 0.019782,-0.0099 0.072534,-0.0033 0.059346,0.0066 0.072534,0.01978 0.016485,0.01319 0.023079,0.05605 0.00659,0.02967 0.00989,0.03297 0.013188,0.01648 0,0.1088 -0.013188,0.09232 -0.039564,0.171444 -0.03297,0.09891 -0.013188,0.230789 0.019782,0.09561 0.029673,0.121988 0.023079,0.06924 0.09891,0.118692 0.026376,0.01648 0.026376,0.03956 0.0033,0.01978 -0.023079,0.07583 -0.039564,0.08243 -0.082425,0.08902 -0.029673,0.0066 -0.082425,-0.02308 -0.052752,-0.03297 -0.095613,-0.08242 -0.029673,-0.03627 -0.029673,-0.03956 0,-0.0066 -0.023079,-0.05275 l -0.023079,-0.04616 -0.029673,0.02638 q -0.00989,0.0099 -0.1055036,0.08572 -0.09891,0.06924 -0.1285824,0.07583 -0.1417704,0.03627 -0.2143041,0.03297 -0.069237,-0.0066 -0.1780373,-0.06594 -0.062643,-0.03627 -0.1088005,-0.138473 -0.026376,-0.05275 -0.026376,-0.06264 l -0.013188,-0.03297 q -0.039564,-0.09891 -0.023079,-0.14177 v -0.06924 q -0.00659,-0.08902 0.062643,-0.27365 0.046158,-0.125285 0.1549583,-0.27365 0.023079,-0.03297 0.082425,-0.09232 0.062643,-0.05935 0.089019,-0.07583 z m 0.2439769,0.250571 q -0.0033,-0.0033 -0.023079,-0.03956 -0.019782,-0.03956 -0.036267,-0.03956 -0.00659,0 -0.069237,0.04286 -0.059346,0.03956 -0.072534,0.05275 -0.1120976,0.121988 -0.1714433,0.263759 -0.046158,0.118691 -0.046158,0.20771 0,0.14177 0.029673,0.191225 0.059346,0.102207 0.1516613,0.07253 0.095613,-0.02967 0.1714433,-0.09561 0.075831,-0.06594 0.1120975,-0.125285 0.069237,-0.118692 0.069237,-0.194522 0,-0.02638 0.016485,-0.141771 0.00659,-0.04616 0.00989,-0.05275 0.0033,-0.01648 -0.00659,-0.01648 -0.036267,0.0033 -0.069237,-0.02967 -0.03297,-0.03297 -0.042861,-0.05935 -0.013188,-0.02967 -0.023079,-0.03627 z"
       id="path500" /></g><rect
     style="fill:#a69d75;fill-opacity:1;stroke-width:0.3;stroke-linecap:round;stroke-dasharray:0.3, 0.899999;stop-color:#000000"
     id="rect348"
     width="35.512978"
     height="1.6051174"
     x="3.0318818"
     y="26.623707" /><g
     aria-label="&gt;c"
     id="text5074"
     style="font-size:2.82222px;line-height:0em;font-family:'xkcd Script';-inkscape-font-specification:'xkcd Script';text-align:center;text-anchor:middle;stroke-width:0.3;stroke-linecap:round;stroke-dasharray:0.3, 0.899999;stop-color:#000000"><path
       d="m 3.1004118,24.412607 q 0.049455,-0.04946 0.069237,-0.05275 0.019782,-0.0033 0.059346,0.01978 0.023079,0.01319 0.1153945,0.1088 0.092316,0.09232 0.1417704,0.154959 0.019782,0.01978 0.023079,0.01978 0.013188,0 0.089019,0.08243 0.1978191,0.197819 0.3329956,0.296729 0.062643,0.04286 0.1022065,0.08243 0.023079,0.02308 0.036267,0.02967 0.016485,0.0066 0.026376,0.01648 0.00989,0.0066 0.016485,0.01319 0.00659,0.0033 0.00989,0.01649 0.00659,0.01319 0.00659,0.01978 0.0033,0.0033 0.00659,0.02638 0.00659,0.01978 0.00989,0.02967 0,0.01649 -0.0033,0.02967 -0.00989,0.04616 -0.1417704,0.168146 -0.1615523,0.14177 -0.2044132,0.20771 -0.026376,0.03956 -0.095613,0.102207 -0.06594,0.06264 -0.089019,0.08902 -0.049455,0.06594 -0.1747402,0.20771 -0.046158,0.05275 -0.059346,0.05605 -0.013188,0.0033 -0.026376,0.03297 -0.00659,0.01319 -0.052752,0.05935 -0.06594,0.05605 -0.1252854,0.03956 -0.026376,-0.0066 -0.036267,-0.01648 -0.00989,-0.0066 -0.042861,-0.05275 -0.052752,-0.07913 -0.016485,-0.118692 0.00989,-0.0099 0.029673,-0.03956 0.00659,-0.01319 0.075831,-0.08243 0.069237,-0.06924 0.072534,-0.07583 0.0033,-0.0066 0.06594,-0.07913 0.06594,-0.07253 0.072534,-0.08572 0.019782,-0.03956 0.1153946,-0.125285 0.019782,-0.01978 0.1252854,-0.128583 0.1088006,-0.112097 0.1351765,-0.135176 0.042861,-0.03627 0.042861,-0.04616 -0.0033,-0.0066 -0.052752,-0.04286 -0.046158,-0.03956 -0.052752,-0.03956 -0.026376,0 -0.3824504,-0.359371 -0.24068,-0.243977 -0.2736498,-0.283541 -0.029673,-0.03956 -0.013188,-0.07253 0.00989,-0.01978 0.062643,-0.07253 z"
       id="path503" /><path
       d="m 4.9104548,24.643396 q 0.029673,-0.01319 0.1055036,-0.0099 0.075831,0 0.092316,0.01648 0.00989,0.0099 0.019782,0.0099 0.013188,0 0.069237,0.04616 0.013188,0.01319 0.036267,0.05275 0.026376,0.03627 0.029673,0.04286 0.069237,0.08572 0.069237,0.118691 0,0.01648 0.00989,0.02967 0.016485,0.02638 -0.0033,0.08572 -0.00989,0.03297 -0.042861,0.04945 -0.00989,0.0033 -0.019782,0.0066 -0.00659,0.0033 -0.013188,0.0066 -0.0033,0 -0.00989,0 -0.0033,0 -0.00659,-0.0033 -0.0033,-0.0033 -0.0033,-0.0066 0,-0.0033 -0.059346,-0.03297 -0.016485,-0.0066 -0.056049,-0.06594 -0.013188,-0.01978 -0.069237,-0.08902 -0.026376,-0.02967 -0.049455,-0.02967 -0.052752,0 -0.1516613,0.1088 -0.095613,0.108801 -0.1582554,0.237383 -0.00659,0.01648 -0.026376,0.05605 -0.016485,0.03956 -0.019782,0.04946 -0.00989,0.02967 -0.019782,0.04945 -0.026376,0.03956 -0.036267,0.154959 -0.00659,0.115394 0.00659,0.194522 0.03297,0.194522 0.234086,0.158255 0.2670559,-0.05275 0.3231047,-0.06594 0.1549583,-0.03956 0.1813342,-0.02638 0.019782,0.01319 0.046158,0.05935 0.056049,0.105504 -0.019782,0.141771 -0.023079,0.0099 -0.023079,0.01978 l -0.019782,0.0066 q -0.019782,0.0066 -0.039564,0.01319 l -0.019782,0.0066 q -0.00989,0.0099 -0.1186915,0.03956 -0.1055035,0.02638 -0.1318794,0.02308 -0.019782,0 -0.029673,0.0033 -0.1219885,0.04286 -0.3099167,0.01319 -0.036267,-0.0066 -0.075831,-0.01978 -0.039564,-0.01648 -0.039564,-0.02638 0,-0.0033 -0.00989,-0.0033 -0.013188,0 -0.062643,-0.04616 -0.049455,-0.04946 -0.06594,-0.07913 -0.1120975,-0.178037 -0.075831,-0.41542 0.036267,-0.217601 0.052752,-0.234086 0.0033,-0.0066 0.026376,-0.05605 0.023079,-0.05275 0.026376,-0.05935 l 0.00659,-0.01319 q 0.00659,-0.0099 0.013188,-0.01978 0.00659,-0.01319 0.00989,-0.02637 0.069237,-0.168147 0.2208981,-0.329699 0.029673,-0.03297 0.095613,-0.08243 0.069237,-0.04945 0.082425,-0.04945 0.00989,0 0.029673,-0.0099 z"
       id="path505" /></g><rect
     style="fill:#a69d75;fill-opacity:1;stroke-width:0.3;stroke-linecap:round;stroke-dasharray:0.3, 0.899999;stop-color:#000000"
     id="rect5489"
     width="35.512978"
     height="1.6051174"
     x="3.0318818"
     y="28.579979" /><rect
     style="fill:#233e6c;stroke-width:0.3;stroke-linecap:round;stroke-dasharray:0.3, 0.899999;stop-color:#000000"
     id="rect234"
     width="35.512978"
     height="1.6051174"
     x="3.0318818"
     y="10.776093" /><g
     aria-label="&gt;a"
     id="text466"
     style="font-size:2.82222px;line-height:0em;font-family:'xkcd Script';-inkscape-font-specification:'xkcd Script';text-align:center;text-anchor:middle;stroke-width:0.3;stroke-linecap:round;stroke-dasharray:0.3, 0.899999;stop-color:#000000"><path
       d="m 3.1004118,8.5649913 q 0.049455,-0.049455 0.069237,-0.052752 0.019782,-0.0033 0.059346,0.019782 0.023079,0.013188 0.1153945,0.1088005 0.092316,0.092316 0.1417704,0.1549584 0.019782,0.019782 0.023079,0.019782 0.013188,0 0.089019,0.082425 0.1978192,0.1978191 0.3329956,0.2967287 0.062643,0.042861 0.1022066,0.082425 0.023079,0.023079 0.036267,0.029673 0.016485,0.00659 0.026376,0.016485 0.00989,0.00659 0.016485,0.013188 0.00659,0.0033 0.00989,0.016485 0.00659,0.013188 0.00659,0.019782 0.0033,0.0033 0.00659,0.026376 0.00659,0.019782 0.00989,0.029673 0,0.016485 -0.0033,0.029673 -0.00989,0.046158 -0.1417704,0.1681463 -0.1615523,0.1417704 -0.2044131,0.2077101 -0.026376,0.039564 -0.095613,0.1022066 -0.06594,0.062643 -0.089019,0.089018 -0.049455,0.06594 -0.1747403,0.20771 -0.046158,0.05275 -0.059346,0.05605 -0.013188,0.0033 -0.026376,0.03297 -0.00659,0.01319 -0.052752,0.05935 -0.06594,0.05605 -0.1252855,0.03956 -0.026376,-0.0066 -0.036267,-0.01648 -0.00989,-0.0066 -0.042861,-0.05275 -0.052752,-0.07913 -0.016485,-0.118692 0.00989,-0.0099 0.029673,-0.03956 0.00659,-0.01319 0.075831,-0.08242 0.069237,-0.06924 0.072534,-0.07583 0.0033,-0.0066 0.06594,-0.079128 0.06594,-0.072534 0.072534,-0.085722 Q 3.4136255,9.8310339 3.5092381,9.7453123 3.52902,9.7255304 3.6345236,9.6167298 3.7433241,9.5046323 3.7697,9.4815534 q 0.042861,-0.036267 0.042861,-0.046158 -0.0033,-0.00659 -0.052752,-0.042861 -0.046158,-0.039564 -0.052752,-0.039564 -0.026376,0 -0.3824504,-0.3593714 Q 3.0839269,8.7496225 3.050957,8.7100587 3.0212842,8.6704948 3.0377691,8.637525 3.04766,8.617743 3.1004118,8.5649913 Z"
       id="path508" /><path
       d="m 4.7653875,9.0562422 q 0.03297,-0.023079 0.042861,-0.023079 0.00989,0 0.046158,-0.013188 0.036267,-0.016485 0.046158,-0.016485 0.016485,-0.0033 0.059346,-0.0033 0.026376,0.0033 0.069237,0.019782 0.046158,0.016485 0.049455,0.023079 0,0.0033 0.046158,0.042861 0.00659,0.00659 0.00989,0.019782 0.00659,0.00989 0.013188,0.013188 0.00659,0.0033 0.029673,0.052752 0.023079,0.046158 0.029673,0.06594 0.00989,0.052752 0.016485,0.052752 0.00659,0 0.00659,-0.00659 0,-0.00659 0.019782,-0.016485 0.019782,-0.00989 0.072534,-0.0033 0.059346,0.00659 0.072534,0.019782 0.016485,0.013188 0.023079,0.056049 0.00659,0.029673 0.00989,0.03297 0.013188,0.016485 0,0.1088005 -0.013188,0.092316 -0.039564,0.1714433 -0.03297,0.09891 -0.013188,0.230789 0.019782,0.095613 0.029673,0.1219883 0.023079,0.06924 0.09891,0.118692 0.026376,0.01648 0.026376,0.03956 0.0033,0.01978 -0.023079,0.07583 -0.039564,0.08243 -0.082425,0.08902 -0.029673,0.0066 -0.082425,-0.02308 -0.052752,-0.03297 -0.095613,-0.08242 -0.029673,-0.03627 -0.029673,-0.03956 0,-0.0066 -0.023079,-0.05275 l -0.023079,-0.04616 -0.029673,0.02638 q -0.00989,0.0099 -0.1055035,0.08572 -0.09891,0.06924 -0.1285825,0.07583 -0.1417704,0.03627 -0.2143041,0.03297 -0.069237,-0.0066 -0.1780372,-0.06594 -0.062643,-0.03627 -0.1088006,-0.138473 -0.026376,-0.05275 -0.026376,-0.06264 l -0.013188,-0.03297 Q 4.3268883,9.9068646 4.3433733,9.8640038 v -0.069237 q -0.00659,-0.089019 0.062643,-0.2736499 0.046158,-0.1252854 0.1549584,-0.2736498 0.023079,-0.03297 0.082425,-0.092316 0.062643,-0.059346 0.089019,-0.075831 z m 0.243977,0.2505709 q -0.0033,-0.0033 -0.023079,-0.039564 -0.019782,-0.039564 -0.036267,-0.039564 -0.00659,0 -0.069237,0.042861 -0.059346,0.039564 -0.072534,0.052752 -0.1120975,0.1219885 -0.1714433,0.2637589 -0.046158,0.1186915 -0.046158,0.2077101 0,0.1417704 0.029673,0.1912252 0.059346,0.1022067 0.1516614,0.072534 0.095613,-0.02967 0.1714432,-0.095613 0.075831,-0.06594 0.1120976,-0.1252855 0.069237,-0.1186915 0.069237,-0.1945222 0,-0.026376 0.016485,-0.1417704 0.00659,-0.046158 0.00989,-0.052752 0.0033,-0.016485 -0.00659,-0.016485 -0.036267,0.0033 -0.069237,-0.029673 -0.03297,-0.03297 -0.042861,-0.059346 -0.013188,-0.029673 -0.023079,-0.036267 z"
       id="path510" /></g><rect
     style="fill:#233e6c;stroke-width:0.3;stroke-linecap:round;stroke-dasharray:0.3, 0.899999;stop-color:#000000"
     id="rect5503"
     width="35.512978"
     height="1.6051174"
     x="3.0318818"
     y="12.732368" /><g
     aria-label="&lt;fasta output&gt;"
     id="text2298"
     style="font-size:4.23333px;line-height:0em;font-family:'xkcd Script';-inkscape-font-specification:'xkcd Script';text-align:center;text-anchor:middle;stroke-width:0.3;stroke-linecap:round;stroke-dasharray:0.3, 0.899999;stop-color:#000000"><path
       d="m 71.958438,2.7401219 q 0.05935,-0.034618 0.08902,-0.029673 0.02967,0.00495 0.103855,0.079128 0.07913,0.079128 0.09396,0.1088005 0.02473,0.049455 -0.02473,0.1088005 -0.04451,0.059346 -0.405529,0.4253112 -0.539057,0.5390572 -0.573675,0.5390572 -0.0099,0 -0.08407,0.059346 -0.06924,0.0544 -0.07418,0.064291 0,0.014836 0.06429,0.069237 0.03956,0.034618 0.197819,0.2027646 0.1632,0.1632008 0.192873,0.1928737 0.103855,0.093964 0.158256,0.1730917 0.05935,0.074182 0.118691,0.1384734 0.04945,0.0544 0.09891,0.113746 0.04945,0.059346 0.118691,0.1285825 0.08902,0.089019 0.108801,0.1186915 0.02967,0.044509 0.04451,0.059346 0.0544,0.059346 -0.02473,0.1780372 -0.04945,0.064291 -0.06429,0.079128 -0.01484,0.014836 -0.0544,0.024727 -0.08902,0.024727 -0.187928,-0.059346 -0.06924,-0.069237 -0.07913,-0.089019 -0.01978,-0.044509 -0.03956,-0.049455 -0.01978,-0.00495 -0.08902,-0.084073 Q 71.458945,5.0793333 71.384762,4.9804237 71.350144,4.9359144 71.246289,4.8468958 71.14738,4.7529317 71.107816,4.693586 71.043524,4.5946764 70.801196,4.3820208 70.603377,4.1990381 70.58854,4.1298014 q -0.0049,-0.014836 0.0049,-0.089019 0.01484,-0.09891 0.103855,-0.1384734 0.01978,-0.00989 0.0544,-0.044509 0.05935,-0.059346 0.15331,-0.123637 0.202765,-0.1483643 0.499493,-0.4450931 0.113746,-0.1236369 0.133528,-0.1236369 0.0049,0 0.03462,-0.029673 0.07418,-0.093964 0.212655,-0.2324375 0.138474,-0.1434189 0.173092,-0.1632008 z"
       id="path456" /><path
       d="m 73.639897,2.5423027 q 0,-0.00989 0.02967,-0.00989 0.03462,-0.00495 0.07913,-0.00495 0.04451,0 0.08902,0.00495 0.04451,0 0.07913,0.00495 h 0.03956 q 0.380802,0.074182 0.529166,0.2522194 0.03956,0.049455 0.03956,0.0544 0,0.014836 0.0049,0.024727 0.02473,0.074182 0.0099,0.09891 -0.03956,0.084073 -0.113746,0.1038551 -0.01978,0 -0.0544,0.019782 -0.03462,0.014836 -0.06924,0.00989 -0.0544,-0.00989 -0.09396,-0.049455 -0.0544,-0.0544 -0.148364,-0.089019 -0.09396,-0.039564 -0.227492,-0.044509 -0.123637,-0.00495 -0.178037,0.00989 -0.04946,0.014836 -0.103855,0.079128 -0.04945,0.069237 -0.08407,0.1928737 -0.03462,0.1434189 -0.04451,0.2769468 l -0.0049,0.09891 0.09396,-0.00495 q 0.232437,-0.014836 0.267056,-0.014836 0.03956,0 0.05935,0.019782 0.05935,0.049455 0.06429,0.1730918 l 0.0049,0.089019 -0.03956,0.034618 q -0.03462,0.034618 -0.08902,0.044509 -0.04946,0.00495 -0.301674,0.024727 l -0.05935,0.00495 0.0049,0.044509 q 0.0049,0.029673 0.02967,0.3956383 0.02473,0.3659654 0.04451,0.4896024 0.01484,0.074182 0.02473,0.2522194 0.0099,0.1780372 -0.01484,0.2769468 -0.0049,0.014837 -0.0099,0.024727 -0.0049,0.00495 -0.01484,0.014836 -0.0049,0.00495 -0.0099,0.00989 -0.0049,0.00495 -0.01978,0.00495 -0.01484,0.00495 -0.02473,0.00495 -0.0049,0 -0.03462,0.00495 -0.02473,0.00495 -0.03956,0.00495 -0.103855,0.00989 -0.138474,-0.00989 -0.08902,-0.0544 -0.08902,-0.2917833 0.0049,-0.09891 -0.01484,-0.2868377 -0.01978,-0.1879282 -0.01978,-0.2324375 -0.0049,-0.074182 -0.0099,-0.123637 -0.0049,-0.0544 -0.0099,-0.1434189 -0.0049,-0.103855 -0.01484,-0.1632008 -0.0099,-0.059346 -0.01484,-0.1434189 0,-0.113746 -0.0099,-0.1236369 -0.0049,-0.00495 -0.143418,-0.00495 -0.222547,0 -0.296729,-0.059346 l -0.01978,-0.019782 q -0.0099,-0.024727 -0.01484,-0.064291 -0.0099,-0.064291 0.0099,-0.1038551 0.03956,-0.074182 0.133528,-0.089019 0.143419,-0.034618 0.262111,-0.039564 l 0.07913,-0.00495 v -0.123637 q 0.0099,-0.2621103 0.03462,-0.2868377 0.0049,-0.00495 0.01484,-0.039564 0.0099,-0.039564 0.01484,-0.074182 l 0.0099,-0.034618 q 0.04451,-0.103855 0.06924,-0.1384734 0.06924,-0.113746 0.118692,-0.1632008 0.0544,-0.049455 0.148364,-0.09891 0.07418,-0.039564 0.143419,-0.0544 0.04451,-0.00989 0.04451,-0.014836 z"
       id="path458" /><path
       d="m 75.479615,3.526453 q 0.04946,-0.034618 0.06429,-0.034618 0.01484,0 0.06924,-0.019782 0.0544,-0.024727 0.06924,-0.024727 0.02473,-0.00495 0.08902,-0.00495 0.03956,0.00495 0.103855,0.029673 0.06924,0.024727 0.07418,0.034618 0,0.00495 0.06924,0.064291 0.0099,0.00989 0.01484,0.029673 0.0099,0.014836 0.01978,0.019782 0.0099,0.00495 0.04451,0.079128 0.03462,0.069237 0.04451,0.098909 0.01484,0.079128 0.02473,0.079128 0.0099,0 0.0099,-0.00989 0,-0.00989 0.02967,-0.024727 0.02967,-0.014836 0.1088,-0.00495 0.08902,0.00989 0.108801,0.029673 0.02473,0.019782 0.03462,0.084073 0.0099,0.044509 0.01484,0.049455 0.01978,0.024727 0,0.1632008 -0.01978,0.1384734 -0.05935,0.2571649 -0.04945,0.1483643 -0.01978,0.3461835 0.02967,0.1434188 0.04451,0.1829827 0.03462,0.103855 0.148365,0.1780372 0.03956,0.024727 0.03956,0.059346 0.0049,0.029673 -0.03462,0.113746 -0.05935,0.1236369 -0.123637,0.1335279 -0.04451,0.00989 -0.123637,-0.034618 -0.07913,-0.049455 -0.143419,-0.1236369 -0.04451,-0.0544 -0.04451,-0.059346 0,-0.00989 -0.03462,-0.079128 l -0.03462,-0.069237 -0.04451,0.039564 q -0.01484,0.014836 -0.158255,0.1285824 -0.148365,0.1038551 -0.192874,0.1137461 -0.212656,0.0544 -0.321456,0.049455 -0.103855,-0.00989 -0.267056,-0.098909 -0.09396,-0.0544 -0.163201,-0.2077101 -0.03956,-0.079128 -0.03956,-0.093964 l -0.01978,-0.049455 Q 74.821867,4.8023865 74.846594,4.7380953 V 4.6342402 q -0.0099,-0.1335279 0.09396,-0.4104747 0.06924,-0.1879282 0.232438,-0.4104747 0.03462,-0.049455 0.123637,-0.1384734 0.09396,-0.089019 0.133528,-0.113746 z m 0.365966,0.3758564 q -0.0049,-0.00495 -0.03462,-0.059346 -0.02967,-0.059346 -0.0544,-0.059346 -0.0099,0 -0.103855,0.064291 -0.08902,0.059346 -0.1088,0.079128 -0.168147,0.1829827 -0.257165,0.3956383 -0.06924,0.1780372 -0.06924,0.3115651 0,0.2126556 0.04451,0.2868378 0.08902,0.1533098 0.227492,0.1088005 0.143419,-0.044509 0.257165,-0.1434188 0.113746,-0.09891 0.168147,-0.1879282 0.103855,-0.1780373 0.103855,-0.2917833 0,-0.039564 0.02473,-0.2126556 0.0099,-0.069237 0.01484,-0.079128 0.0049,-0.024727 -0.0099,-0.024727 -0.0544,0.00495 -0.103856,-0.044509 -0.04945,-0.049455 -0.06429,-0.089019 -0.01978,-0.044509 -0.03462,-0.0544 z"
       id="path460" /><path
       d="m 77.655629,3.2346698 q 0.06429,-0.00989 0.168147,0.00989 0.06429,0.00989 0.123637,0.039564 0.06924,0.029673 0.08902,0.079128 0.02473,0.059346 0.02473,0.064291 l -0.04946,0.09891 q -0.04451,0.084073 -0.08407,0.093964 -0.0544,0.019782 -0.113746,0 -0.212656,-0.069237 -0.400584,0.1285825 -0.0544,0.0544 -0.09396,0.1186914 -0.04946,0.093964 -0.0099,0.1038551 0.0099,0.00989 0.148364,-0.00989 l 0.138474,-0.00989 0.128582,-0.069237 q 0.07913,-0.039564 0.187928,-0.079128 0.08407,-0.024727 0.133528,-0.024727 0.0544,0 0.08407,0.00495 0.03462,0.00495 0.04451,0.00989 0.0099,0.00495 0.03462,0.019782 0.02967,0.00989 0.04945,0.019782 0.03956,0.019782 0.09396,0.074182 0.05935,0.049455 0.07913,0.089019 0.01484,0.034618 0.01484,0.034618 0.01484,0.0544 0.01484,0.069237 0,0.044509 0.01484,0.1038551 0.06924,0.2818923 0.01484,0.4698205 -0.04945,0.1829827 -0.232437,0.351129 -0.08407,0.084073 -0.113746,0.1088005 -0.07418,0.069237 -0.25222,0.1483644 -0.03462,0.014836 -0.267055,0.069237 -0.03956,0.00989 -0.128583,0.00989 -0.08902,0 -0.187928,-0.049455 -0.04451,-0.024727 -0.07418,-0.044509 -0.02967,-0.019782 -0.04451,-0.034618 -0.0099,-0.014837 -0.03462,-0.044509 -0.02473,-0.034618 -0.04451,-0.059346 -0.113746,-0.1335279 -0.138474,-0.2720013 -0.02473,-0.1533099 0.0099,-0.1978192 0.03462,-0.044509 0.04945,-0.0544 0.01978,-0.00989 0.08902,-0.014836 0.08902,-0.00989 0.113746,0.00495 0.02473,0.014836 0.03956,0.089019 0,0.014836 0.02473,0.0544 0.02473,0.039564 0.02473,0.059346 0,0.0544 0.113746,0.1582554 0.04451,0.044509 0.08902,0.039564 0.26211,-0.039564 0.356074,-0.1186915 0.01978,-0.019782 0.07418,-0.069237 0.05935,-0.0544 0.08902,-0.084073 0.02967,-0.029673 0.06429,-0.084073 0.03462,-0.059346 0.03956,-0.113746 0.0049,-0.039564 -0.01978,-0.1879282 -0.02473,-0.1533098 -0.03956,-0.1730917 -0.02967,-0.039564 -0.178038,0.034618 -0.148364,0.079128 -0.237383,0.1038551 -0.08902,0.019782 -0.281892,0.034618 -0.09396,0.00989 -0.173092,-0.00989 -0.02473,-0.00495 -0.0544,-0.00989 -0.02967,-0.00989 -0.03956,-0.00989 -0.0049,-0.00495 -0.02473,-0.00989 -0.01484,-0.00989 -0.02967,-0.019782 -0.01484,-0.014837 -0.03956,-0.044509 -0.06429,-0.074182 -0.09396,-0.1483644 -0.04945,-0.2522194 0.07418,-0.4450931 0.128583,-0.1928737 0.341238,-0.3016742 0.173092,-0.084073 0.301674,-0.103855 z"
       id="path462" /><path
       d="m 79.426114,2.5521937 q 0.01484,-0.019782 0.01484,-0.029673 0,-0.00989 0.01978,-0.034618 0.02473,-0.029673 0.02967,-0.029673 0.04946,0.00989 0.103855,0.019782 0.108801,0.019782 0.123637,0.049455 0.01484,0.049455 -0.03462,0.3906928 -0.02967,0.2225466 -0.06429,0.3412381 -0.0049,0.014836 -0.01484,0.064291 l -0.0099,0.039564 h 0.182983 q 0.336292,0 0.41542,0.034618 0.0544,0.014836 0.0544,0.103855 0,0.00495 0.0049,0.039564 0.0099,0.034618 0.0099,0.064291 0,0.024727 -0.01484,0.024727 l -0.0099,0.029673 q -0.0099,0.024727 -0.03956,0.049455 -0.02473,0.024727 -0.04945,0.024727 h -0.311565 q -0.291784,0 -0.296729,0.014836 -0.0049,0.00989 -0.0544,0.4154202 -0.0099,0.059346 -0.0099,0.2126555 0,0.484657 0.173091,0.6528032 0.04451,0.044509 0.103855,0.059346 0.07418,0.014836 0.168147,-0.00989 0.09891,-0.029673 0.148364,-0.079128 l 0.04451,-0.044509 0.06924,0.00495 q 0.108801,0.014836 0.148364,0.059346 0.02473,0.024727 0.01978,0.1088005 -0.0049,0.1088005 -0.07418,0.1730918 -0.01484,0.00989 -0.05935,0.039564 -0.04451,0.024727 -0.08407,0.044509 -0.03462,0.019782 -0.03462,0.014836 -0.03462,0.00495 -0.07418,0.019782 -0.301674,0.093964 -0.529166,-0.049455 -0.07913,-0.0544 -0.118692,-0.089019 -0.03462,-0.034618 -0.09396,-0.1186915 -0.04946,-0.074182 -0.118692,-0.3066197 -0.07418,-0.2868378 -0.04945,-0.5489482 0.01484,-0.1780372 0.01978,-0.2621103 0.0099,-0.133528 0.01978,-0.1829827 0.01978,-0.074182 -0.0099,-0.084073 -0.02967,-0.014836 -0.113746,0 -0.09891,0.00495 -0.143419,-0.024727 -0.04945,-0.029673 -0.05935,-0.069237 -0.02967,-0.1236369 -0.0099,-0.1681462 0.02473,-0.0544 0.07418,-0.069237 0.01484,-0.00495 0.143419,-0.019782 0.128582,-0.019782 0.15331,-0.019782 0.02473,0 0.02967,-0.00989 0.0049,-0.014836 0.01978,-0.123637 0.01484,-0.079128 0.07418,-0.3461835 0.0049,-0.024727 0.01484,-0.049455 0.0099,-0.029673 0.01484,-0.064291 0.01978,-0.1186915 0.0544,-0.1879282 0.01484,-0.039564 0.01484,-0.049455 0,-0.00989 0.01484,-0.024727 z"
       id="path464" /><path
       d="m 81.285611,3.526453 q 0.04945,-0.034618 0.06429,-0.034618 0.01484,0 0.06924,-0.019782 0.0544,-0.024727 0.06924,-0.024727 0.02473,-0.00495 0.08902,-0.00495 0.03956,0.00495 0.103855,0.029673 0.06924,0.024727 0.07418,0.034618 0,0.00495 0.06924,0.064291 0.0099,0.00989 0.01484,0.029673 0.0099,0.014836 0.01978,0.019782 0.0099,0.00495 0.04451,0.079128 0.03462,0.069237 0.04451,0.098909 0.01484,0.079128 0.02473,0.079128 0.0099,0 0.0099,-0.00989 0,-0.00989 0.02967,-0.024727 0.02967,-0.014836 0.1088,-0.00495 0.08902,0.00989 0.108801,0.029673 0.02473,0.019782 0.03462,0.084073 0.0099,0.044509 0.01484,0.049455 0.01978,0.024727 0,0.1632008 -0.01978,0.1384734 -0.05935,0.2571649 -0.04946,0.1483643 -0.01978,0.3461835 0.02967,0.1434188 0.04451,0.1829827 0.03462,0.103855 0.148365,0.1780372 0.03956,0.024727 0.03956,0.059346 0.0049,0.029673 -0.03462,0.113746 -0.05935,0.1236369 -0.123637,0.1335279 -0.04451,0.00989 -0.123637,-0.034618 -0.07913,-0.049455 -0.143419,-0.1236369 -0.04451,-0.0544 -0.04451,-0.059346 0,-0.00989 -0.03462,-0.079128 l -0.03462,-0.069237 -0.04451,0.039564 q -0.01484,0.014836 -0.158255,0.1285824 -0.148365,0.1038551 -0.192874,0.1137461 -0.212656,0.0544 -0.321456,0.049455 -0.103855,-0.00989 -0.267056,-0.098909 -0.09396,-0.0544 -0.163201,-0.2077101 -0.03956,-0.079128 -0.03956,-0.093964 l -0.01978,-0.049455 Q 80.627863,4.8023865 80.65259,4.7380953 V 4.6342402 q -0.0099,-0.1335279 0.09396,-0.4104747 0.06924,-0.1879282 0.232438,-0.4104747 0.03462,-0.049455 0.123637,-0.1384734 0.09396,-0.089019 0.133528,-0.113746 z m 0.365966,0.3758564 q -0.0049,-0.00495 -0.03462,-0.059346 -0.02967,-0.059346 -0.0544,-0.059346 -0.0099,0 -0.103855,0.064291 -0.08902,0.059346 -0.1088,0.079128 -0.168147,0.1829827 -0.257165,0.3956383 -0.06924,0.1780372 -0.06924,0.3115651 0,0.2126556 0.04451,0.2868378 0.08902,0.1533098 0.227492,0.1088005 0.143419,-0.044509 0.257165,-0.1434188 0.113746,-0.09891 0.168147,-0.1879282 0.103855,-0.1780373 0.103855,-0.2917833 0,-0.039564 0.02473,-0.2126556 0.0099,-0.069237 0.01484,-0.079128 0.0049,-0.024727 -0.0099,-0.024727 -0.0544,0.00495 -0.103855,-0.044509 -0.04945,-0.049455 -0.06429,-0.089019 -0.01978,-0.044509 -0.03462,-0.0544 z"
       id="path466" /><path
       d="m 84.772174,3.4324889 q 0.0099,0 0.04451,-0.014836 0.03956,-0.014836 0.0544,-0.014836 0.202764,-0.034618 0.346183,0.0544 0.08407,0.044509 0.133528,0.084073 0.02967,0.019782 0.09396,0.089019 0.06429,0.064291 0.06924,0.079128 0,0.00495 0.03462,0.064291 0.03462,0.059346 0.03462,0.064291 0,0.00989 0.01978,0.049455 0.01978,0.039564 0.01978,0.044509 0,0.00495 0.01978,0.0544 0.03956,0.1088006 0.04945,0.2769468 0.0099,0.1681463 -0.02473,0.3115652 -0.04945,0.1730917 -0.06429,0.1879282 -0.0049,0.00495 -0.02473,0.044509 -0.0099,0.019782 -0.0544,0.084073 -0.04451,0.059346 -0.0544,0.074182 -0.07913,0.113746 -0.163201,0.1978192 -0.03956,0.039564 -0.118692,0.09891 -0.07418,0.0544 -0.08902,0.0544 -0.0049,0 -0.0544,0.029673 -0.148364,0.093964 -0.306619,0.1186915 -0.113746,0.019782 -0.247274,0 -0.133528,-0.019782 -0.202765,-0.074182 -0.0099,-0.00495 -0.01978,-0.00989 -0.0099,-0.00989 -0.02473,-0.014836 -0.0099,-0.00989 -0.01484,-0.014836 -0.133528,-0.079128 -0.212655,-0.3560745 -0.01978,-0.069237 -0.01978,-0.2967287 0,-0.1829827 0.0099,-0.2522195 0.01484,-0.069237 0.06924,-0.2522194 0.06924,-0.227492 0.148364,-0.341238 l 0.02967,-0.049455 q 0,-0.00989 0.05935,-0.079128 0.05934,-0.074182 0.09396,-0.1088006 0.138473,-0.1285824 0.247274,-0.1632008 0.08902,-0.019782 0.118691,-0.019782 z m 0.425311,0.4797114 -0.06924,0.039564 q -0.06924,0.034618 -0.07418,0.034618 -0.0099,0 -0.04945,-0.034618 -0.03956,-0.039564 -0.04451,-0.039564 -0.0099,0 -0.01978,-0.019782 -0.0099,-0.014836 -0.04451,-0.034618 -0.02967,-0.024727 -0.03462,-0.034618 -0.01484,-0.014836 -0.01978,-0.00495 -0.0049,0.00989 -0.03956,0.00989 -0.03462,0 -0.04451,-0.00989 -0.01978,-0.034618 -0.103855,0.059346 -0.227492,0.2423285 -0.296729,0.7121489 -0.02967,0.2027647 0.03462,0.36102 0.03462,0.093964 0.07913,0.1236369 0.04451,0.029673 0.158255,0.029673 0.103855,0 0.286838,-0.103855 0.202765,-0.123637 0.326402,-0.351129 0.118691,-0.2027647 0.07418,-0.4352022 -0.02473,-0.1186914 -0.02967,-0.1335279 -0.06429,-0.1681463 -0.08902,-0.1681463 z"
       id="path468" /><path
       d="m 87.383388,3.422598 q 0.07418,-0.044509 0.08407,-0.049455 0.01484,-0.00495 0.09891,0 0.03956,0.00989 0.103855,0.1434189 0.07418,0.1681462 0.08902,0.341238 0.0099,0.1285824 0.0099,0.3560744 0,0.2274921 -0.0049,0.2571649 -0.0049,0.019782 -0.02473,0.1384734 -0.03956,0.2720014 -0.148364,0.4154203 -0.123637,0.1533098 -0.158256,0.1632008 -0.01484,0 -0.02967,0.014836 -0.04451,0.039564 -0.192873,0.09891 -0.143419,0.0544 -0.281893,0.084073 -0.222546,0.049455 -0.37091,0.024727 -0.385748,-0.064291 -0.494548,-0.4104747 -0.123637,-0.3956383 -0.0544,-0.7467673 0.0049,-0.034618 0.0099,-0.113746 0.0099,-0.084073 0.01978,-0.1434189 0.0099,-0.064291 0.02967,-0.089019 0.0099,-0.014836 0.02473,-0.079128 0.01484,-0.064291 0.01978,-0.079128 0.01484,-0.029673 0.01484,-0.064291 0,-0.024727 0.03956,-0.1186915 0.03956,-0.093964 0.0544,-0.113746 0.02473,-0.024727 0.03956,-0.039564 0.01484,-0.014836 0.01484,-0.00989 0,0.00495 0.01484,-0.00495 0.01484,-0.014836 0.118691,0.029673 0.09396,0.034618 0.108801,0.059346 0.01978,0.024727 0.0049,0.084073 -0.0099,0.034618 -0.0099,0.069237 0,0.034618 -0.01978,0.089019 -0.06924,0.2176011 -0.07913,0.3264016 -0.02473,0.2522194 -0.04451,0.2917833 -0.0099,0.00989 -0.0049,0.1879282 0.0099,0.1730917 0.01978,0.2423284 0.02473,0.1384734 0.08902,0.2126556 0.03462,0.034618 0.05935,0.044509 0.02967,0.00495 0.15331,0.00989 0.267056,0 0.430257,-0.093964 0.128582,-0.069237 0.178037,-0.1483644 0.0544,-0.079128 0.07418,-0.2324375 0.01978,-0.1335279 0.02473,-0.1384734 0.0099,-0.019782 0.0099,-0.2126556 0,-0.1928736 -0.0099,-0.2077101 -0.0049,-0.00989 -0.01484,-0.1335279 -0.0049,-0.1285824 -0.07418,-0.2868378 -0.02473,-0.049455 -0.0099,-0.089019 0.0099,-0.034618 0.08902,-0.079128 z"
       id="path470" /><path
       d="m 88.67416,2.5521937 q 0.01484,-0.019782 0.01484,-0.029673 0,-0.00989 0.01978,-0.034618 0.02473,-0.029673 0.02967,-0.029673 0.04946,0.00989 0.103855,0.019782 0.108801,0.019782 0.123637,0.049455 0.01484,0.049455 -0.03462,0.3906928 -0.02967,0.2225466 -0.06429,0.3412381 -0.0049,0.014836 -0.01484,0.064291 l -0.0099,0.039564 h 0.182983 q 0.336292,0 0.41542,0.034618 0.0544,0.014836 0.0544,0.103855 0,0.00495 0.0049,0.039564 0.0099,0.034618 0.0099,0.064291 0,0.024727 -0.01484,0.024727 l -0.0099,0.029673 q -0.0099,0.024727 -0.03956,0.049455 -0.02473,0.024727 -0.04945,0.024727 h -0.311566 q -0.291783,0 -0.296728,0.014836 -0.0049,0.00989 -0.0544,0.4154202 -0.0099,0.059346 -0.0099,0.2126555 0,0.484657 0.173091,0.6528032 0.04451,0.044509 0.103855,0.059346 0.07418,0.014836 0.168147,-0.00989 0.09891,-0.029673 0.148364,-0.079128 l 0.04451,-0.044509 0.06924,0.00495 q 0.108801,0.014836 0.148364,0.059346 0.02473,0.024727 0.01978,0.1088005 -0.0049,0.1088005 -0.07418,0.1730918 -0.01484,0.00989 -0.05935,0.039564 -0.04451,0.024727 -0.08407,0.044509 -0.03462,0.019782 -0.03462,0.014836 -0.03462,0.00495 -0.07418,0.019782 -0.301675,0.093964 -0.529167,-0.049455 -0.07913,-0.0544 -0.118691,-0.089019 -0.03462,-0.034618 -0.09396,-0.1186915 -0.04946,-0.074182 -0.118692,-0.3066197 -0.07418,-0.2868378 -0.04945,-0.5489482 0.01484,-0.1780372 0.01978,-0.2621103 0.0099,-0.133528 0.01978,-0.1829827 0.01978,-0.074182 -0.0099,-0.084073 -0.02967,-0.014836 -0.113746,0 -0.09891,0.00495 -0.143418,-0.024727 -0.04945,-0.029673 -0.05935,-0.069237 -0.02967,-0.1236369 -0.0099,-0.1681462 0.02473,-0.0544 0.07418,-0.069237 0.01484,-0.00495 0.143419,-0.019782 0.128582,-0.019782 0.15331,-0.019782 0.02473,0 0.02967,-0.00989 0.0049,-0.014836 0.01978,-0.123637 0.01484,-0.079128 0.07418,-0.3461835 0.0049,-0.024727 0.01484,-0.049455 0.0099,-0.029673 0.01484,-0.064291 0.01978,-0.1186915 0.0544,-0.1879282 0.01484,-0.039564 0.01484,-0.049455 0,-0.00989 0.01484,-0.024727 z"
       id="path472" /><path
       d="m 90.879841,3.2643426 q 0.01978,-0.00989 0.1088,0.00989 0.232438,0.0544 0.316511,0.1186915 0.04451,0.034618 0.05935,0.034618 0.0099,-0.00495 0.08407,0.079128 0.07418,0.079128 0.09396,0.113746 0.113746,0.1780372 0.163201,0.36102 0.0099,0.029673 0.01978,0.049455 0.0099,0.019782 0.01978,0.0544 0.05934,0.2472739 0.02473,0.5242207 0,0.014837 -0.01978,0.089019 -0.01978,0.074182 -0.01978,0.084073 0,0.024727 -0.03956,0.084073 -0.01978,0.029673 -0.02967,0.049455 -0.0099,0.019782 -0.01484,0.029673 -0.0049,0.00989 -0.01978,0.029673 -0.01484,0.014836 -0.0544,0.0544 -0.08902,0.089019 -0.15331,0.1186915 -0.113746,0.059346 -0.143419,0.069237 -0.321456,0.084073 -0.544003,0.024727 -0.192873,-0.039564 -0.336292,-0.1088005 l -0.07418,-0.034618 v 0.093964 q 0,0.09891 -0.0049,0.1038551 -0.0049,0.00495 -0.01978,0.3906928 -0.0099,0.3857473 -0.0099,0.4055293 -0.0099,0.034618 -0.0099,0.2027646 0,0.0544 -0.03462,0.113746 -0.02967,0.059346 -0.05935,0.059346 -0.01978,0 -0.03956,0.00989 -0.01978,0.00989 -0.07913,-0.00989 -0.02967,-0.00989 -0.0544,-0.014836 -0.02473,-0.00495 -0.04946,-0.019782 -0.08407,-0.049455 -0.0544,-0.2571649 0.0099,-0.084073 0.01978,-0.3066197 0.0099,-0.217601 0.01484,-0.4994933 0.0099,-0.2818923 0.01484,-0.3956383 0.01978,-0.2967288 0.01978,-0.4154202 0.0099,-0.1681463 0.01484,-0.1978192 0.01978,-0.1483644 -0.01484,-0.2176011 -0.0099,-0.029673 -0.0049,-0.1582553 0.0049,-0.1285824 0.02967,-0.1829827 0.02473,-0.049455 0.02473,-0.069237 0,-0.029673 0.103855,-0.1533098 0.01978,-0.024727 0.03462,-0.044509 0.01978,-0.024727 0.02967,-0.034618 0.0099,-0.014836 0.01484,-0.019782 0.0099,-0.014836 0.08407,-0.059346 0.07913,-0.044509 0.123637,-0.059346 0.03462,-0.014836 0.0544,-0.024727 0.02473,-0.00989 0.05935,-0.019782 0.02967,-0.00495 0.04451,-0.019782 0.0049,-0.00989 0.09891,-0.019782 0.09891,-0.014836 0.143419,-0.00989 0.03956,0.00495 0.06429,-0.00495 z m 0.03462,0.3709109 q -0.173092,-0.019782 -0.301674,0.024727 -0.182983,0.0544 -0.257165,0.1483644 l -0.03462,0.044509 0.0049,0.064291 q 0,0.014836 0,0.079128 0.0049,0.059346 0.0049,0.1681463 0.0049,0.1088005 0.0049,0.1879282 l 0.0099,0.3709109 h 0.02967 q 0.03462,0 0.118691,0.049455 0.123637,0.079128 0.267056,0.1038551 0.182983,0.039564 0.346184,0.00495 0.217601,-0.049455 0.276947,-0.227492 0.06429,-0.1829828 -0.0099,-0.4994934 -0.01978,-0.103855 -0.07418,-0.2126556 -0.0544,-0.113746 -0.118692,-0.1730917 Q 91.052933,3.65009 90.914459,3.6352535 Z"
       id="path474" /><path
       d="m 93.47127,3.422598 q 0.07418,-0.044509 0.08407,-0.049455 0.01484,-0.00495 0.09891,0 0.03956,0.00989 0.103855,0.1434189 0.07418,0.1681462 0.08902,0.341238 0.0099,0.1285824 0.0099,0.3560744 0,0.2274921 -0.0049,0.2571649 -0.0049,0.019782 -0.02473,0.1384734 -0.03956,0.2720014 -0.148364,0.4154203 -0.123637,0.1533098 -0.158256,0.1632008 -0.01484,0 -0.02967,0.014836 -0.04451,0.039564 -0.192873,0.09891 -0.143419,0.0544 -0.281892,0.084073 -0.222547,0.049455 -0.370911,0.024727 -0.385748,-0.064291 -0.494548,-0.4104747 -0.123637,-0.3956383 -0.0544,-0.7467673 0.0049,-0.034618 0.0099,-0.113746 0.0099,-0.084073 0.01978,-0.1434189 0.0099,-0.064291 0.02967,-0.089019 0.0099,-0.014836 0.02473,-0.079128 0.01484,-0.064291 0.01978,-0.079128 0.01484,-0.029673 0.01484,-0.064291 0,-0.024727 0.03956,-0.1186915 0.03956,-0.093964 0.0544,-0.113746 0.02473,-0.024727 0.03956,-0.039564 0.01484,-0.014836 0.01484,-0.00989 0,0.00495 0.01484,-0.00495 0.01484,-0.014836 0.118691,0.029673 0.09396,0.034618 0.108801,0.059346 0.01978,0.024727 0.0049,0.084073 -0.0099,0.034618 -0.0099,0.069237 0,0.034618 -0.01978,0.089019 -0.06924,0.2176011 -0.07913,0.3264016 -0.02473,0.2522194 -0.04451,0.2917833 -0.0099,0.00989 -0.0049,0.1879282 0.0099,0.1730917 0.01978,0.2423284 0.02473,0.1384734 0.08902,0.2126556 0.03462,0.034618 0.05935,0.044509 0.02967,0.00495 0.15331,0.00989 0.267056,0 0.430257,-0.093964 0.128582,-0.069237 0.178037,-0.1483644 0.0544,-0.079128 0.07418,-0.2324375 0.01978,-0.1335279 0.02473,-0.1384734 0.0099,-0.019782 0.0099,-0.2126556 0,-0.1928736 -0.0099,-0.2077101 -0.0049,-0.00989 -0.01484,-0.1335279 -0.0049,-0.1285824 -0.07418,-0.2868378 -0.02473,-0.049455 -0.0099,-0.089019 0.0099,-0.034618 0.08902,-0.079128 z"
       id="path476" /><path
       d="m 94.762043,2.5521937 q 0.01484,-0.019782 0.01484,-0.029673 0,-0.00989 0.01978,-0.034618 0.02473,-0.029673 0.02967,-0.029673 0.04945,0.00989 0.103855,0.019782 0.108801,0.019782 0.123637,0.049455 0.01484,0.049455 -0.03462,0.3906928 -0.02967,0.2225466 -0.06429,0.3412381 -0.0049,0.014836 -0.01484,0.064291 l -0.0099,0.039564 h 0.182983 q 0.336292,0 0.41542,0.034618 0.0544,0.014836 0.0544,0.103855 0,0.00495 0.0049,0.039564 0.0099,0.034618 0.0099,0.064291 0,0.024727 -0.01484,0.024727 l -0.0099,0.029673 q -0.0099,0.024727 -0.03956,0.049455 -0.02473,0.024727 -0.04945,0.024727 h -0.311566 q -0.291783,0 -0.296728,0.014836 -0.0049,0.00989 -0.0544,0.4154202 -0.0099,0.059346 -0.0099,0.2126555 0,0.484657 0.173091,0.6528032 0.04451,0.044509 0.103855,0.059346 0.07418,0.014836 0.168147,-0.00989 0.09891,-0.029673 0.148364,-0.079128 l 0.04451,-0.044509 0.06924,0.00495 q 0.108801,0.014836 0.148364,0.059346 0.02473,0.024727 0.01978,0.1088005 -0.0049,0.1088005 -0.07418,0.1730918 -0.01484,0.00989 -0.05935,0.039564 -0.04451,0.024727 -0.08407,0.044509 -0.03462,0.019782 -0.03462,0.014836 -0.03462,0.00495 -0.07418,0.019782 -0.301675,0.093964 -0.529167,-0.049455 -0.07913,-0.0544 -0.118691,-0.089019 -0.03462,-0.034618 -0.09396,-0.1186915 -0.04945,-0.074182 -0.118692,-0.3066197 -0.07418,-0.2868378 -0.04945,-0.5489482 0.01484,-0.1780372 0.01978,-0.2621103 0.0099,-0.133528 0.01978,-0.1829827 0.01978,-0.074182 -0.0099,-0.084073 -0.02967,-0.014836 -0.113746,0 -0.09891,0.00495 -0.143418,-0.024727 -0.04946,-0.029673 -0.05935,-0.069237 -0.02967,-0.1236369 -0.0099,-0.1681462 0.02473,-0.0544 0.07418,-0.069237 0.01484,-0.00495 0.143419,-0.019782 0.128582,-0.019782 0.15331,-0.019782 0.02473,0 0.02967,-0.00989 0.0049,-0.014836 0.01978,-0.123637 0.01484,-0.079128 0.07418,-0.3461835 0.0049,-0.024727 0.01484,-0.049455 0.0099,-0.029673 0.01484,-0.064291 0.01978,-0.1186915 0.0544,-0.1879282 0.01484,-0.039564 0.01484,-0.049455 0,-0.00989 0.01484,-0.024727 z"
       id="path478" /><path
       d="m 96.092374,2.7895767 q 0.07418,-0.074182 0.103855,-0.079128 0.02967,-0.00495 0.08902,0.029673 0.03462,0.019782 0.173092,0.1632008 0.138473,0.1384734 0.212655,0.2324375 0.02967,0.029673 0.03462,0.029673 0.01978,0 0.133528,0.1236369 0.296729,0.2967288 0.499494,0.4450931 0.09396,0.064291 0.15331,0.123637 0.03462,0.034618 0.0544,0.044509 0.02473,0.00989 0.03956,0.024727 0.01484,0.00989 0.02473,0.019782 0.0099,0.00495 0.01484,0.024727 0.0099,0.019782 0.0099,0.029673 0.0049,0.00495 0.0099,0.039564 0.0099,0.029673 0.01484,0.044509 0,0.024727 -0.0049,0.044509 -0.01484,0.069237 -0.212655,0.2522194 -0.242329,0.2126556 -0.30662,0.3115652 -0.03956,0.059346 -0.143419,0.1533098 -0.09891,0.093964 -0.133528,0.1335279 -0.07418,0.09891 -0.26211,0.3115652 -0.06924,0.079128 -0.08902,0.084073 -0.01978,0.00495 -0.03956,0.049455 -0.0099,0.019782 -0.07913,0.089019 -0.09891,0.084073 -0.187928,0.059346 -0.03956,-0.00989 -0.0544,-0.024727 -0.01484,-0.00989 -0.06429,-0.079128 -0.07913,-0.1186914 -0.02473,-0.1780372 0.01484,-0.014836 0.04451,-0.059346 0.0099,-0.019782 0.113746,-0.123637 0.103855,-0.1038551 0.108801,-0.113746 0.0049,-0.00989 0.09891,-0.1186915 0.09891,-0.1088005 0.108801,-0.1285825 0.02967,-0.059346 0.173091,-0.1879281 0.02967,-0.029673 0.187929,-0.1928737 0.1632,-0.1681463 0.202764,-0.2027646 0.06429,-0.0544 0.06429,-0.069237 -0.0049,-0.00989 -0.07913,-0.064291 -0.06924,-0.059346 -0.07913,-0.059346 -0.03956,0 -0.573675,-0.5390572 -0.36102,-0.3659654 -0.410475,-0.4253112 -0.04451,-0.059346 -0.01978,-0.1088005 0.01484,-0.029673 0.09396,-0.1088005 z"
       id="path480" /></g><rect
     style="fill:#233e6c;stroke-width:0.3;stroke-linecap:round;stroke-dasharray:0.3, 0.899999;stop-color:#000000"
     id="rect5626"
     width="35.512978"
     height="1.6051174"
     x="66.366997"
     y="13.058213" /><g
     aria-label="&gt;a"
     id="text5636"
     style="font-size:2.82222px;line-height:0em;font-family:'xkcd Script';-inkscape-font-specification:'xkcd Script';text-align:center;text-anchor:middle;stroke-width:0.3;stroke-linecap:round;stroke-dasharray:0.3, 0.899999;stop-color:#000000"><path
       d="m 66.435552,10.847112 q 0.04945,-0.04946 0.06924,-0.05275 0.01978,-0.0033 0.05935,0.01978 0.02308,0.01319 0.115395,0.108801 0.09231,0.09231 0.14177,0.154958 0.01978,0.01978 0.02308,0.01978 0.01319,0 0.08902,0.08243 0.19782,0.197819 0.332996,0.296728 0.06264,0.04286 0.102207,0.08242 0.02308,0.02308 0.03627,0.02967 0.01649,0.0066 0.02638,0.01648 0.0099,0.0066 0.01649,0.01319 0.0066,0.0033 0.0099,0.01648 0.0066,0.01319 0.0066,0.01978 0.0033,0.0033 0.0066,0.02637 0.0066,0.01978 0.0099,0.02967 0,0.01648 -0.0033,0.02967 -0.0099,0.04616 -0.14177,0.168146 -0.161553,0.141771 -0.204413,0.207711 -0.02638,0.03956 -0.09561,0.102206 -0.06594,0.06264 -0.08902,0.08902 -0.04945,0.06594 -0.17474,0.20771 -0.04616,0.05275 -0.05935,0.05605 -0.01319,0.0033 -0.02638,0.03297 -0.0066,0.01319 -0.05275,0.05934 -0.06594,0.05605 -0.125286,0.03956 -0.02638,-0.0066 -0.03627,-0.01648 -0.0099,-0.0066 -0.04286,-0.05275 -0.05275,-0.07913 -0.01648,-0.118691 0.0099,-0.0099 0.02967,-0.03956 0.0066,-0.01319 0.07583,-0.08243 0.06924,-0.06924 0.07253,-0.07583 0.0033,-0.0066 0.06594,-0.07913 0.06594,-0.07253 0.07253,-0.08572 0.01978,-0.03956 0.115395,-0.125285 0.01978,-0.01978 0.125285,-0.128582 0.108801,-0.112098 0.135177,-0.135177 0.04286,-0.03627 0.04286,-0.04616 -0.0033,-0.0066 -0.05275,-0.04286 -0.04616,-0.03956 -0.05275,-0.03956 -0.02638,0 -0.38245,-0.359372 -0.24068,-0.243977 -0.27365,-0.283541 -0.02967,-0.03956 -0.01319,-0.07253 0.0099,-0.01978 0.06264,-0.07253 z"
       id="path483" /><path
       d="m 68.100527,11.338363 q 0.03297,-0.02308 0.04286,-0.02308 0.0099,0 0.04616,-0.01319 0.03627,-0.01649 0.04616,-0.01649 0.01649,-0.0033 0.05935,-0.0033 0.02638,0.0033 0.06924,0.01978 0.04616,0.01648 0.04945,0.02308 0,0.0033 0.04616,0.04286 0.0066,0.0066 0.0099,0.01978 0.0066,0.0099 0.01319,0.01319 0.0066,0.0033 0.02967,0.05275 0.02308,0.04616 0.02967,0.06594 0.0099,0.05275 0.01649,0.05275 0.0066,0 0.0066,-0.0066 0,-0.0066 0.01978,-0.01649 0.01978,-0.0099 0.07253,-0.0033 0.05935,0.0066 0.07253,0.01978 0.01649,0.01319 0.02308,0.05605 0.0066,0.02967 0.0099,0.03297 0.01319,0.01648 0,0.1088 -0.01319,0.09232 -0.03956,0.171443 -0.03297,0.09891 -0.01319,0.230789 0.01978,0.09561 0.02967,0.121989 0.02308,0.06924 0.09891,0.118691 0.02638,0.01648 0.02638,0.03956 0.0033,0.01978 -0.02308,0.07583 -0.03956,0.08243 -0.08243,0.08902 -0.02967,0.0066 -0.08242,-0.02308 -0.05275,-0.03297 -0.09561,-0.08242 -0.02967,-0.03627 -0.02967,-0.03956 0,-0.0066 -0.02308,-0.05275 l -0.02308,-0.04616 -0.02967,0.02637 q -0.0099,0.0099 -0.105504,0.08572 -0.09891,0.06924 -0.128582,0.07583 -0.141771,0.03627 -0.214304,0.03297 -0.06924,-0.0066 -0.178038,-0.06594 -0.06264,-0.03627 -0.1088,-0.138474 -0.02638,-0.05275 -0.02638,-0.06264 l -0.01319,-0.03297 q -0.03956,-0.09891 -0.02308,-0.141771 v -0.06924 q -0.0066,-0.08902 0.06264,-0.27365 0.04616,-0.125286 0.154958,-0.27365 0.02308,-0.03297 0.08243,-0.09232 0.06264,-0.05935 0.08902,-0.07583 z m 0.243977,0.250571 q -0.0033,-0.0033 -0.02308,-0.03956 -0.01978,-0.03956 -0.03627,-0.03956 -0.0066,0 -0.06924,0.04286 -0.05935,0.03956 -0.07253,0.05275 -0.112097,0.121988 -0.171443,0.263759 -0.04616,0.118691 -0.04616,0.20771 0,0.14177 0.02967,0.191225 0.05935,0.102207 0.151661,0.07253 0.09561,-0.02967 0.171443,-0.09561 0.07583,-0.06594 0.112098,-0.125285 0.06924,-0.118692 0.06924,-0.194523 0,-0.02637 0.01649,-0.14177 0.0066,-0.04616 0.0099,-0.05275 0.0033,-0.01648 -0.0066,-0.01648 -0.03627,0.0033 -0.06924,-0.02967 -0.03297,-0.03297 -0.04286,-0.05934 -0.01319,-0.02967 -0.02308,-0.03627 z"
       id="path485" /></g><rect
     style="fill:#233e6c;stroke-width:0.3;stroke-linecap:round;stroke-dasharray:0.3, 0.899999;stop-color:#000000"
     id="rect5656"
     width="35.512978"
     height="1.6051174"
     x="66.366997"
     y="15.014485" /><rect
     style="fill:#233e6c;stroke-width:0.3;stroke-linecap:round;stroke-dasharray:0.3, 0.899999;stop-color:#000000"
     id="rect5690"
     width="35.512978"
     height="1.6051174"
     x="66.366997"
     y="16.970757" /><rect
     style="fill:#233e6c;stroke-width:0.3;stroke-linecap:round;stroke-dasharray:0.3, 0.900001;stop-color:#000000"
     id="rect5692"
     width="11.719282"
     height="1.6051174"
     x="66.366997"
     y="18.927029" /><rect
     style="fill:#a69d75;stroke-width:0.3;stroke-linecap:round;stroke-dasharray:0.3, 0.899999;stop-color:#000000"
     id="rect5630"
     width="35.512978"
     height="1.6051174"
     x="66.366997"
     y="24.341585" /><g
     aria-label="&gt;c"
     id="text5648"
     style="font-size:2.82222px;line-height:0em;font-family:'xkcd Script';-inkscape-font-specification:'xkcd Script';text-align:center;text-anchor:middle;stroke-width:0.3;stroke-linecap:round;stroke-dasharray:0.3, 0.899999;stop-color:#000000"><path
       d="m 66.506434,22.130485 q 0.04945,-0.04946 0.06924,-0.05275 0.01978,-0.0033 0.05935,0.01978 0.02308,0.01319 0.115394,0.108801 0.09232,0.09231 0.141771,0.154958 0.01978,0.01978 0.02308,0.01978 0.01319,0 0.08902,0.08242 0.197819,0.19782 0.332996,0.296729 0.06264,0.04286 0.102206,0.08243 0.02308,0.02308 0.03627,0.02967 0.01649,0.0066 0.02638,0.01648 0.0099,0.0066 0.01649,0.01319 0.0066,0.0033 0.0099,0.01649 0.0066,0.01319 0.0066,0.01978 0.0033,0.0033 0.0066,0.02638 0.0066,0.01978 0.0099,0.02967 0,0.01648 -0.0033,0.02967 -0.0099,0.04616 -0.14177,0.168146 -0.161553,0.141771 -0.204414,0.20771 -0.02638,0.03956 -0.09561,0.102207 -0.06594,0.06264 -0.08902,0.08902 -0.04945,0.06594 -0.17474,0.20771 -0.04616,0.05275 -0.05935,0.05605 -0.01319,0.0033 -0.02638,0.03297 -0.0066,0.01319 -0.05275,0.05935 -0.06594,0.05605 -0.125285,0.03956 -0.02638,-0.0066 -0.03627,-0.01648 -0.0099,-0.0066 -0.04286,-0.05275 -0.05275,-0.07913 -0.01649,-0.118691 0.0099,-0.0099 0.02967,-0.03956 0.0066,-0.01319 0.07583,-0.08243 0.06924,-0.06924 0.07253,-0.07583 0.0033,-0.0066 0.06594,-0.07913 0.06594,-0.07253 0.07253,-0.08572 0.01978,-0.03956 0.115395,-0.125285 0.01978,-0.01978 0.125285,-0.128583 0.108801,-0.112097 0.135177,-0.135176 0.04286,-0.03627 0.04286,-0.04616 -0.0033,-0.0066 -0.05275,-0.04286 -0.04616,-0.03956 -0.05275,-0.03956 -0.02638,0 -0.382451,-0.359372 -0.24068,-0.243977 -0.273649,-0.283541 -0.02967,-0.03956 -0.01319,-0.07253 0.0099,-0.01978 0.06264,-0.07253 z"
       id="path488" /><path
       d="m 68.316477,22.361274 q 0.02967,-0.01319 0.105504,-0.0099 0.07583,0 0.09232,0.01649 0.0099,0.0099 0.01978,0.0099 0.01319,0 0.06924,0.04616 0.01319,0.01319 0.03627,0.05275 0.02638,0.03627 0.02967,0.04286 0.06924,0.08572 0.06924,0.118692 0,0.01648 0.0099,0.02967 0.01648,0.02637 -0.0033,0.08572 -0.0099,0.03297 -0.04286,0.04946 -0.0099,0.0033 -0.01978,0.0066 -0.0066,0.0033 -0.01319,0.0066 -0.0033,0 -0.0099,0 -0.0033,0 -0.0066,-0.0033 -0.0033,-0.0033 -0.0033,-0.0066 0,-0.0033 -0.05935,-0.03297 -0.01648,-0.0066 -0.05605,-0.06594 -0.01319,-0.01978 -0.06924,-0.08902 -0.02638,-0.02967 -0.04946,-0.02967 -0.05275,0 -0.151661,0.1088 -0.09561,0.108801 -0.158256,0.237383 -0.0066,0.01648 -0.02638,0.05605 -0.01649,0.03956 -0.01978,0.04945 -0.0099,0.02967 -0.01978,0.04946 -0.02638,0.03956 -0.03627,0.154958 -0.0066,0.115395 0.0066,0.194522 0.03297,0.194523 0.234086,0.158256 0.267056,-0.05275 0.323104,-0.06594 0.154959,-0.03956 0.181335,-0.02638 0.01978,0.01319 0.04616,0.05935 0.05605,0.105503 -0.01978,0.14177 -0.02308,0.0099 -0.02308,0.01978 l -0.01978,0.0066 q -0.01978,0.0066 -0.03956,0.01319 l -0.01978,0.0066 q -0.0099,0.0099 -0.118692,0.03956 -0.105503,0.02638 -0.131879,0.02308 -0.01978,0 -0.02967,0.0033 -0.121988,0.04286 -0.309917,0.01319 -0.03627,-0.0066 -0.07583,-0.01978 -0.03956,-0.01648 -0.03956,-0.02638 0,-0.0033 -0.0099,-0.0033 -0.01319,0 -0.06264,-0.04616 -0.04945,-0.04946 -0.06594,-0.07913 -0.112097,-0.178037 -0.07583,-0.41542 0.03627,-0.217601 0.05275,-0.234086 0.0033,-0.0066 0.02637,-0.05605 0.02308,-0.05275 0.02638,-0.05935 l 0.0066,-0.01319 q 0.0066,-0.0099 0.01319,-0.01978 0.0066,-0.01319 0.0099,-0.02638 0.06924,-0.168146 0.220898,-0.329699 0.02967,-0.03297 0.09561,-0.08242 0.06924,-0.04945 0.08243,-0.04945 0.0099,0 0.02967,-0.0099 z"
       id="path490" /></g><rect
     style="fill:#a69d75;stroke-width:0.3;stroke-linecap:round;stroke-dasharray:0.3, 0.899999;stop-color:#000000"
     id="rect5652"
     width="35.512978"
     height="1.6051174"
     x="66.366997"
     y="26.297857" /><path
     id="rect520"
     style="opacity:0.305016;fill:#000000;stroke-width:0.3;stroke-linecap:round;stroke-dasharray:0.3, 0.900001;stop-color:#000000"
     d="m 51.916772,11.062402 -0.21664,0.215447 c -0.208061,0.208118 -0.416183,0.416157 -0.62426,0.62426 2.48281,2.481462 4.96536,4.963372 7.446645,7.446351 -2.481082,2.482781 -4.963438,4.964492 -7.446048,7.445756 0.280179,0.280027 0.560106,0.560296 0.840303,0.840304 2.762974,-2.761095 5.524968,-5.523086 8.286055,-8.28606 -2.761087,-2.762973 -5.523081,-5.524964 -8.286055,-8.286058 z" /><path
     id="path528"
     style="opacity:0.305016;fill:#494949;fill-opacity:1;stroke-width:0.3;stroke-linecap:round;stroke-dasharray:0.3, 0.900001;stop-color:#000000"
     d="m 49.67424,11.062402 -0.216641,0.215447 c -0.208061,0.208118 -0.416183,0.416157 -0.62426,0.62426 2.48281,2.481462 4.965361,4.963372 7.446647,7.446351 -2.481084,2.482781 -4.96344,4.964492 -7.44605,7.445756 0.280179,0.280027 0.560106,0.560296 0.840304,0.840304 2.762973,-2.761095 5.524967,-5.523086 8.286055,-8.28606 -2.761088,-2.762973 -5.523082,-5.524964 -8.286055,-8.286058 z" /><path
     id="path1086"
     style="opacity:0.305016;fill:#bababa;fill-opacity:1;stroke-width:0.3;stroke-linecap:round;stroke-dasharray:0.3, 0.900001;stop-color:#000000"
     d="m 47.431707,11.062402 -0.216641,0.215447 c -0.20806,0.208118 -0.416183,0.416157 -0.624259,0.62426 2.482809,2.481462 4.96536,4.963372 7.446647,7.446351 -2.481085,2.482781 -4.963441,4.964492 -7.44605,7.445756 0.280178,0.280027 0.560105,0.560296 0.840303,0.840304 2.762973,-2.761095 5.524967,-5.523086 8.286055,-8.28606 -2.761088,-2.762973 -5.523082,-5.524964 -8.286055,-8.286058 z" /></svg>
